{"glyphs":{"0":{"ha":589,"x_min":21,"x_max":557,"o":"m 483 132 q 388 28 449 58 q 236 19 328 -1 q 106 98 153 39 q 42 238 58 157 q 35 451 21 346 q 93 660 49 557 q 115 699 101 678 q 144 741 128 721 q 179 776 161 761 q 215 796 197 792 q 289 820 253 808 q 363 836 325 832 q 441 822 406 842 q 500 763 476 801 q 532 690 524 729 q 547 611 540 651 q 556 494 554 560 q 550 361 557 428 q 527 234 543 294 q 483 132 511 174 m 369 650 q 334 614 344 633 q 315 575 324 594 q 278 433 288 504 q 278 286 269 361 q 294 208 282 246 q 319 180 303 182 q 351 200 336 178 q 372 242 363 219 q 386 289 382 265 q 398 413 399 351 q 390 536 397 474 q 381 590 386 563 q 369 650 375 618 z "},"1":{"ha":397,"x_min":15,"x_max":365,"o":"m 156 551 q 135 535 143 542 q 119 524 128 529 q 81 515 101 513 q 43 528 61 517 q 22 560 28 542 q 22 597 15 578 q 97 719 54 664 q 176 831 139 775 q 210 869 192 854 q 260 879 228 885 q 322 859 296 874 q 357 804 349 844 q 363 778 360 790 q 365 750 365 765 q 365 460 365 604 q 364 169 364 317 q 353 106 364 136 q 321 49 342 76 q 278 14 303 25 q 228 3 253 3 q 179 18 203 4 q 139 58 156 32 q 111 178 106 115 q 126 301 118 240 q 142 424 135 363 q 150 485 147 454 q 156 551 153 515 z "},"2":{"ha":619,"x_min":22,"x_max":596,"o":"m 310 143 q 351 146 333 144 q 385 149 369 147 q 418 149 401 149 q 451 147 435 150 q 498 122 482 142 q 511 78 514 101 q 488 34 508 51 q 436 17 468 17 q 369 14 403 15 q 301 11 335 13 q 222 9 261 10 q 142 6 182 8 q 103 10 119 4 q 76 28 88 17 q 56 53 65 39 q 39 83 47 68 q 28 138 22 111 q 56 189 33 165 q 147 298 100 244 q 238 408 194 351 q 307 502 275 454 q 368 599 339 550 q 386 639 379 617 q 392 681 393 661 q 381 716 392 700 q 347 739 371 732 q 292 739 321 746 q 243 715 264 732 q 212 674 222 699 q 213 622 201 650 q 190 542 235 557 q 135 542 163 531 q 96 581 108 553 q 78 643 81 613 q 89 710 75 674 q 149 801 107 763 q 244 861 192 840 q 356 883 297 882 q 468 858 415 883 q 533 809 508 840 q 569 736 557 778 q 578 574 596 653 q 521 422 561 494 q 427 285 481 350 q 329 164 374 219 q 320 157 324 161 q 310 143 317 153 z "},"3":{"ha":633,"x_min":29,"x_max":597,"o":"m 458 567 q 482 547 472 556 q 567 444 540 503 q 594 314 593 385 q 557 140 597 219 q 468 37 522 71 q 339 -4 414 3 q 317 -4 328 -4 q 294 -6 306 -4 q 194 12 240 -10 q 113 68 147 33 q 56 145 78 103 q 32 225 35 188 q 30 298 29 261 q 40 371 31 335 q 48 392 44 382 q 58 411 51 403 q 96 442 74 435 q 142 443 118 450 q 190 368 193 426 q 187 328 189 347 q 185 290 185 308 q 188 251 185 271 q 200 214 190 232 q 244 181 219 182 q 292 200 269 181 q 351 284 332 236 q 367 388 369 332 q 347 440 365 421 q 296 467 328 458 q 281 472 289 469 q 265 476 272 474 q 225 528 232 496 q 242 589 218 561 q 263 608 251 600 q 286 624 275 615 q 337 660 311 642 q 388 699 363 679 q 412 728 406 710 q 413 764 418 747 q 389 790 407 781 q 340 790 371 799 q 276 758 308 782 q 226 700 243 735 q 213 679 221 689 q 199 660 206 669 q 158 626 181 633 q 113 632 135 619 q 89 721 61 658 q 122 782 101 753 q 169 832 142 811 q 429 882 288 919 q 458 872 444 879 q 486 854 472 864 q 529 809 513 835 q 551 754 546 783 q 550 695 557 725 q 524 640 543 665 q 494 603 511 619 q 458 567 478 586 z "},"4":{"ha":624,"x_min":26,"x_max":592,"o":"m 292 439 q 357 444 325 442 q 421 449 389 447 q 446 615 435 533 q 454 662 450 639 q 461 708 458 685 q 468 735 464 726 q 491 763 476 754 q 525 772 506 771 q 561 762 544 772 q 582 732 578 751 q 590 697 589 715 q 590 663 592 679 q 581 435 586 549 q 571 208 575 322 q 570 151 569 179 q 569 94 571 122 q 562 63 567 78 q 550 32 557 47 q 472 -14 528 -17 q 428 1 447 -11 q 403 35 410 13 q 390 106 390 68 q 403 257 394 182 q 403 278 403 267 q 406 303 404 289 q 390 303 397 303 q 376 303 383 304 q 278 290 328 297 q 181 265 228 282 q 127 257 153 256 q 81 271 101 258 q 46 306 60 283 q 29 361 32 329 q 31 401 26 381 q 40 439 35 421 q 101 634 69 538 q 164 828 132 731 q 172 849 168 839 q 183 869 176 860 q 268 910 214 918 q 316 893 296 907 q 342 851 336 879 q 348 803 346 828 q 346 754 350 778 q 336 669 343 713 q 321 585 329 626 q 306 513 314 549 q 292 439 299 478 z "},"5":{"ha":622,"x_min":26,"x_max":599,"o":"m 211 725 l 211 675 q 224 672 218 672 q 235 672 229 672 q 362 655 303 676 q 467 592 421 633 q 542 491 513 550 q 578 363 571 432 q 558 209 585 279 q 481 81 532 139 q 399 27 446 46 q 303 3 353 8 q 206 8 254 -1 q 119 42 157 18 q 56 106 81 67 q 28 197 31 144 q 35 242 26 224 q 67 274 43 261 q 151 274 108 300 q 173 258 163 267 q 192 240 183 249 q 255 215 221 213 q 315 238 289 217 q 357 292 342 258 q 366 364 372 326 q 327 438 360 401 q 225 497 294 474 q 183 503 206 504 q 142 504 161 503 q 74 530 99 507 q 51 596 49 553 q 64 700 56 649 q 83 800 72 751 q 120 855 90 836 q 186 874 150 874 q 267 870 226 871 q 349 868 307 869 q 404 869 376 868 q 461 868 432 869 q 501 867 481 868 q 539 863 521 865 q 586 818 575 857 q 567 754 599 779 q 542 739 556 747 q 515 728 529 731 q 428 724 472 725 q 342 721 385 722 q 278 722 310 721 q 211 725 247 724 z "},"6":{"ha":601,"x_min":-3,"x_max":574,"o":"m 322 606 q 422 566 374 592 q 506 502 471 540 q 557 413 540 464 q 564 297 574 361 q 522 169 551 226 q 438 63 492 111 q 340 17 397 29 q 225 17 282 4 q 119 67 168 29 q 47 175 71 106 q 50 485 -3 329 q 240 790 111 657 q 323 848 278 828 q 424 865 368 868 q 460 859 442 864 q 493 847 478 854 q 532 814 518 836 q 548 775 547 796 q 538 735 549 754 q 508 707 525 715 q 467 706 490 699 q 418 704 439 713 q 381 680 397 696 q 350 643 364 664 q 322 606 336 622 m 260 436 q 243 400 250 421 q 233 356 236 379 q 230 308 229 332 q 235 264 231 285 q 274 208 246 218 q 332 211 303 199 q 384 253 361 224 q 407 318 407 283 q 393 369 407 350 q 357 401 379 389 q 309 422 335 414 q 260 436 283 429 z "},"7":{"ha":593,"x_min":32,"x_max":568,"o":"m 490 501 q 504 492 497 496 q 517 485 511 488 q 544 431 546 461 q 511 382 543 400 q 464 368 488 368 q 440 363 449 368 q 424 343 431 358 q 359 220 393 281 q 303 93 325 160 q 276 47 294 67 q 236 15 257 28 q 194 1 215 3 q 154 6 174 -1 q 120 31 135 14 q 97 71 106 47 q 104 179 81 128 q 136 259 121 219 q 167 339 151 299 q 172 357 169 342 q 154 360 163 360 q 136 361 146 360 q 111 363 124 363 q 88 367 99 364 q 52 391 64 374 q 40 429 40 408 q 51 467 40 449 q 85 493 61 486 q 117 502 100 500 q 151 507 133 504 q 173 510 163 510 q 192 510 183 510 l 231 510 q 294 633 263 571 q 358 757 325 694 q 244 765 300 761 q 129 776 188 769 q 99 779 114 778 q 71 785 85 781 q 42 808 51 792 q 33 840 32 824 q 49 874 36 858 q 83 890 61 889 q 253 899 168 899 q 356 894 306 899 q 454 893 406 890 q 538 863 507 896 q 563 776 568 831 q 543 669 557 722 q 513 565 529 615 q 503 534 508 550 q 490 501 497 518 z "},"8":{"ha":538,"x_min":25,"x_max":524,"o":"m 426 438 q 473 370 454 404 q 501 294 492 336 q 503 213 511 253 q 474 137 494 172 q 423 72 453 101 q 360 26 393 43 q 249 -1 306 -3 q 145 28 193 1 q 65 101 97 54 q 28 208 32 147 q 35 272 25 240 q 60 331 44 303 q 85 376 71 354 q 115 421 100 397 q 105 441 110 431 q 93 463 100 451 q 60 539 72 499 q 40 622 47 579 q 72 778 29 711 q 201 871 115 844 q 383 869 292 900 q 472 808 442 850 q 513 708 503 767 q 506 575 524 638 q 443 457 488 513 q 436 449 439 454 q 426 438 433 444 m 207 325 q 188 285 199 303 q 174 250 178 268 q 187 175 165 201 q 238 144 208 149 q 292 156 267 139 q 313 214 317 174 q 281 282 310 247 q 207 325 251 317 m 261 733 q 226 699 233 725 q 225 644 219 674 q 245 589 231 615 q 275 550 260 563 q 299 588 285 563 q 319 639 313 613 q 324 674 324 654 q 317 709 324 693 q 297 733 311 725 q 261 733 283 740 z "},"9":{"ha":576,"x_min":17,"x_max":544,"o":"m 271 233 q 284 296 278 257 q 297 394 290 335 q 276 395 285 394 q 263 396 268 396 q 182 414 221 397 q 112 458 143 431 q 60 521 81 485 q 33 597 39 557 q 66 767 22 694 q 193 869 110 839 q 310 873 256 889 q 415 821 365 857 q 503 703 472 774 q 544 518 543 611 q 522 329 544 425 q 493 228 511 279 q 447 133 475 176 q 381 56 419 89 q 292 11 343 24 q 197 4 238 -4 q 126 36 157 13 q 71 95 94 60 q 28 172 47 131 q 28 228 17 203 q 61 267 40 254 q 104 274 82 279 q 139 236 126 268 q 167 171 149 192 q 205 151 185 150 q 244 172 225 151 q 271 233 263 193 m 318 524 q 322 601 326 565 q 311 669 318 636 q 285 712 308 696 q 238 725 261 728 q 183 691 206 721 q 161 626 161 661 q 183 557 161 586 q 238 525 204 528 q 277 522 257 521 q 318 524 297 524 z "},"\u0000":{"ha":0,"x_min":0,"x_max":0,"o":""},"\r":{"ha":411,"x_min":0,"x_max":0,"o":""}," ":{"ha":411,"x_min":0,"x_max":0,"o":""},"E":{"ha":569,"x_min":15,"x_max":560,"o":"m 303 368 q 292 259 297 313 q 279 149 286 206 q 332 157 307 153 q 381 164 357 161 q 424 165 403 165 q 467 161 444 164 q 485 158 476 161 q 500 149 493 154 q 538 88 539 129 q 497 32 535 46 q 449 19 474 25 q 400 11 425 13 q 276 9 338 8 q 153 8 215 10 q 101 17 125 7 q 57 42 78 26 q 24 88 32 61 q 18 144 15 114 q 35 358 33 253 q 43 571 38 464 q 51 712 46 642 q 64 853 57 782 q 87 915 67 889 q 132 965 107 942 q 156 982 142 976 q 186 990 171 988 q 269 997 226 994 q 353 1003 311 1000 q 400 1003 376 1004 q 447 1003 424 1003 q 452 1003 450 1003 q 456 1004 454 1004 q 526 978 497 1003 q 558 917 556 953 q 533 853 560 881 q 464 824 506 826 q 394 822 428 821 q 324 824 360 824 l 299 824 q 304 683 301 753 q 310 542 307 613 l 342 542 q 399 540 371 540 q 457 535 428 539 q 484 524 471 532 q 508 507 497 517 q 529 474 524 492 q 531 440 535 457 q 516 408 528 422 q 486 385 504 393 q 430 366 458 372 q 369 364 401 360 q 338 367 354 367 q 303 368 322 367 z "},"F":{"ha":529,"x_min":17,"x_max":589,"o":"m 269 854 l 269 547 l 381 547 q 403 547 392 547 q 426 544 415 546 q 471 526 453 539 q 496 483 489 513 q 492 436 503 458 q 453 399 481 414 q 413 384 433 389 q 374 376 393 379 q 331 372 353 372 q 286 369 308 371 q 279 364 286 369 l 279 283 q 278 199 278 242 q 272 115 278 157 q 252 61 268 85 q 213 24 236 38 q 163 6 190 10 q 107 11 136 3 q 40 61 64 25 q 18 146 17 97 q 22 171 21 158 q 25 197 22 183 q 48 416 42 307 q 57 636 54 525 q 65 762 60 700 q 74 888 69 824 q 79 922 76 907 q 118 1003 90 976 q 200 1032 146 1029 q 274 1032 236 1033 q 350 1029 313 1031 q 416 1024 383 1026 q 482 1014 449 1021 q 553 985 522 1007 q 583 944 576 969 q 581 896 589 918 q 553 863 572 874 q 506 853 533 851 q 388 854 446 854 q 269 854 331 854 z "},"G":{"ha":732,"x_min":31,"x_max":693,"o":"m 501 386 q 465 389 482 389 q 432 394 447 389 q 370 435 392 406 q 353 504 349 465 q 385 568 357 540 q 454 593 414 596 q 531 585 493 592 q 608 568 569 578 q 656 527 638 561 q 682 451 674 493 q 692 367 690 408 q 689 304 693 326 q 667 216 681 258 q 633 133 654 174 q 472 18 583 35 q 378 11 425 11 q 286 25 332 11 q 136 128 193 56 q 55 294 79 200 q 35 494 31 389 q 70 696 40 599 q 153 872 100 793 q 275 992 206 951 q 373 1024 321 1018 q 475 1018 425 1031 q 569 974 525 1006 q 643 896 613 943 q 668 842 658 869 q 678 783 678 815 q 667 739 678 757 q 635 714 656 721 q 561 749 593 704 q 531 784 546 767 q 500 817 517 801 q 431 842 467 844 q 364 808 396 839 q 315 738 331 776 q 290 658 299 699 q 276 560 281 614 q 274 451 272 506 q 287 344 276 396 q 318 250 297 292 q 369 189 340 200 q 424 194 397 178 q 471 248 450 210 q 500 336 492 286 q 503 360 503 347 q 501 386 503 374 z "},"H":{"ha":754,"x_min":17,"x_max":719,"o":"m 258 581 q 354 587 307 583 q 451 593 401 590 q 460 671 456 633 q 472 744 465 708 q 489 830 479 788 q 510 914 499 872 q 524 951 515 933 q 544 983 533 968 q 585 1017 561 1006 q 636 1021 608 1028 q 710 947 696 1008 q 717 903 715 925 q 719 857 719 881 q 713 553 717 704 q 707 251 710 403 q 697 163 706 207 q 668 78 689 118 q 606 15 646 33 q 526 14 567 -3 q 456 92 475 36 q 433 249 429 165 q 437 338 436 293 q 439 428 438 383 q 438 433 439 431 q 436 442 438 436 q 355 438 396 442 q 271 426 314 435 l 271 374 q 276 296 274 333 q 282 219 279 258 q 281 149 286 183 q 264 79 275 115 q 231 22 253 44 q 174 -4 210 0 q 53 60 94 -12 q 21 199 17 124 q 42 524 32 363 q 63 846 51 685 q 67 892 65 869 q 71 938 68 915 q 144 1011 82 1008 q 195 997 174 1014 q 225 947 217 981 q 234 903 232 926 q 238 857 236 881 q 247 731 243 794 q 254 604 250 668 q 256 592 256 597 q 258 581 257 588 z "},"I":{"ha":308,"x_min":31,"x_max":276,"o":"m 265 192 q 258 140 264 165 q 244 92 253 115 q 151 15 217 15 q 58 96 86 17 q 47 140 51 118 q 42 186 43 163 q 38 540 31 364 q 69 892 46 715 q 76 922 71 907 q 88 951 81 938 q 169 1011 115 1014 q 219 994 197 1010 q 253 944 242 978 q 264 899 260 924 q 271 850 268 875 q 274 506 276 665 q 265 192 272 346 z "},"Z":{"ha":761,"x_min":25,"x_max":725,"o":"m 300 176 q 307 174 304 175 q 313 172 310 172 q 456 172 385 172 q 600 171 528 172 q 630 169 615 171 q 660 164 644 168 q 707 111 696 151 q 701 75 710 92 q 674 51 693 58 q 624 39 653 39 q 465 39 546 35 q 406 41 435 39 q 347 44 378 43 q 227 49 286 47 q 107 53 168 50 q 46 82 67 56 q 35 144 25 108 q 50 189 42 168 q 69 229 58 210 q 128 319 97 275 q 189 408 160 364 q 263 524 226 467 q 338 638 300 581 q 390 715 364 678 q 443 790 415 753 q 463 818 453 804 q 486 851 472 832 q 442 856 461 854 q 406 858 424 858 q 297 859 351 860 q 189 858 243 858 q 169 860 176 858 q 131 881 146 865 q 117 915 117 896 q 130 949 115 936 q 168 963 144 963 q 252 965 210 964 q 336 965 294 965 q 474 965 406 965 q 614 963 543 964 q 700 904 667 961 q 724 831 725 864 q 699 768 722 799 q 610 653 654 710 q 518 539 565 597 q 404 372 456 458 q 304 196 353 286 q 302 187 303 190 q 300 176 301 183 z "},"Y":{"ha":919,"x_min":32,"x_max":882,"o":"m 301 532 q 324 547 314 540 q 340 560 333 553 q 387 605 364 583 q 429 651 410 626 q 522 764 476 708 q 613 878 567 819 q 643 917 628 897 q 675 956 658 936 q 729 993 700 979 q 813 993 775 1014 q 857 922 850 972 q 867 849 864 886 q 872 772 869 811 q 878 609 875 690 q 879 446 882 528 q 873 361 879 404 q 857 278 867 318 q 812 173 843 218 q 739 97 781 128 q 649 48 697 65 q 554 28 600 31 q 450 27 503 25 q 344 33 397 29 q 265 69 294 36 q 238 144 235 101 q 275 214 242 188 q 358 240 308 240 q 414 242 386 243 q 469 243 442 240 q 544 263 510 246 q 607 307 579 279 q 635 346 626 324 q 647 392 644 368 q 665 544 663 467 q 667 706 667 622 q 653 692 658 697 q 643 681 647 686 q 588 613 615 647 q 532 547 561 579 q 461 474 497 510 q 386 406 425 438 q 290 360 340 368 q 193 368 239 353 q 110 419 147 383 q 57 507 74 456 q 44 555 50 531 q 38 604 39 579 q 38 760 32 683 q 60 914 44 836 q 66 936 63 925 q 75 958 69 947 q 120 1008 90 992 q 185 1019 150 1025 q 242 990 221 1013 q 267 929 264 967 q 272 822 269 875 q 275 715 274 769 q 283 625 276 669 q 301 532 290 581 z "},"X":{"ha":772,"x_min":17,"x_max":751,"o":"m 246 472 q 224 505 235 489 q 203 536 214 521 q 121 665 157 599 q 49 797 85 731 q 36 824 42 811 q 25 851 31 838 q 20 901 17 878 q 43 944 24 925 q 88 974 63 967 q 140 969 113 981 q 178 951 160 963 q 211 925 197 940 q 277 847 246 888 q 340 765 308 806 q 370 723 356 746 q 400 674 385 700 q 415 692 408 685 q 426 707 421 700 q 518 815 471 764 q 618 914 565 865 q 636 931 628 922 q 656 944 644 939 q 699 953 676 957 q 736 932 721 949 q 750 896 749 917 q 736 856 751 875 q 713 826 725 840 q 688 797 700 813 q 597 689 642 743 q 506 582 551 635 q 494 567 499 575 q 482 551 489 560 q 493 533 488 542 q 506 514 499 524 q 594 378 550 446 q 682 239 639 310 q 708 185 697 214 q 726 128 719 157 q 726 76 733 100 q 700 37 718 53 q 657 15 682 21 q 604 18 632 10 q 540 54 568 29 q 488 111 511 79 q 457 160 472 135 q 426 208 442 185 q 386 272 407 240 q 343 335 365 303 q 340 342 342 339 q 336 353 339 346 q 322 335 328 342 q 311 322 315 329 q 245 216 278 269 q 179 110 213 163 q 169 92 174 101 q 158 75 164 82 q 117 51 142 56 q 71 60 93 47 q 42 93 50 71 q 46 142 33 115 q 89 226 67 185 q 138 310 111 268 q 190 390 163 350 q 246 472 217 431 z "},"W":{"ha":1029,"x_min":26,"x_max":996,"o":"m 529 458 q 506 348 517 400 q 485 243 496 296 q 468 187 478 215 q 449 131 458 158 q 438 107 444 118 q 424 85 431 96 q 377 37 403 54 q 322 15 351 19 q 263 21 293 11 q 204 54 232 31 q 153 112 174 81 q 118 178 133 143 q 70 317 86 246 q 49 463 54 388 q 38 667 42 565 q 28 872 33 769 q 31 929 26 897 q 60 986 38 964 q 119 1014 83 1008 q 181 1003 151 1021 q 225 954 211 986 q 238 917 233 936 q 244 878 242 897 q 249 808 247 842 q 254 739 251 774 q 263 547 257 642 q 286 357 268 453 q 301 287 292 322 q 329 214 310 251 q 340 243 335 231 q 350 269 346 256 q 381 399 365 335 q 413 529 397 463 q 431 603 422 565 q 451 679 440 642 q 457 698 454 689 q 465 715 460 707 q 538 761 485 765 q 582 749 563 760 q 607 710 601 738 q 625 628 617 669 q 644 546 633 586 q 690 389 667 467 q 733 232 713 311 q 738 223 735 228 q 747 207 742 218 q 751 228 750 221 q 754 243 753 236 q 758 311 756 278 q 760 378 760 344 q 763 622 763 501 q 764 865 763 743 q 781 963 767 917 q 822 1022 792 1001 q 889 1039 853 1042 q 953 1014 926 1036 q 989 951 981 992 q 994 906 993 929 q 994 860 996 883 q 980 660 988 760 q 963 460 972 560 q 948 328 956 393 q 931 199 940 264 q 885 81 924 132 q 856 50 871 65 q 825 24 842 35 q 735 5 781 -4 q 658 57 690 14 q 624 115 636 85 q 604 179 613 146 q 573 303 589 242 q 542 426 557 364 q 536 440 539 433 q 529 458 533 446 z "},"V":{"ha":867,"x_min":29,"x_max":840,"o":"m 401 336 q 412 353 407 344 q 419 369 417 361 q 530 637 475 504 q 640 904 585 769 q 660 950 650 928 q 682 994 669 972 q 717 1031 696 1018 q 767 1042 738 1044 q 819 1020 799 1040 q 839 968 840 1000 q 828 906 839 936 q 696 585 761 744 q 564 265 631 425 q 521 179 544 221 q 471 97 497 138 q 372 26 431 35 q 256 65 314 18 q 208 119 228 89 q 175 182 188 149 q 127 372 147 283 q 92 537 107 460 q 65 683 78 614 q 39 818 53 753 q 33 866 33 842 q 32 914 32 890 q 90 996 29 976 q 190 969 150 1018 q 215 936 204 954 q 233 900 225 918 q 306 713 278 808 q 354 517 335 617 q 372 426 363 471 q 392 338 382 382 q 397 337 394 338 q 401 336 399 336 z "},"U":{"ha":846,"x_min":25,"x_max":818,"o":"m 568 399 q 506 285 536 340 q 443 172 475 229 q 410 119 428 143 q 296 44 363 56 q 163 78 229 33 q 101 140 126 104 q 63 217 76 175 q 26 414 28 314 q 38 628 25 522 q 78 840 50 733 q 85 863 81 851 q 94 885 89 874 q 133 929 107 915 q 190 939 158 943 q 242 915 221 936 q 265 863 263 894 q 270 805 268 833 q 272 747 272 776 q 269 572 272 660 q 268 396 267 485 q 275 300 268 331 q 294 263 282 269 q 321 272 306 257 q 353 314 336 288 q 388 376 369 340 q 421 444 406 411 q 513 637 465 542 q 604 829 560 732 q 693 924 633 890 q 769 928 733 943 q 811 868 804 913 q 817 808 817 839 q 817 746 818 778 q 804 588 811 667 q 792 426 797 508 q 783 296 788 361 q 786 164 779 231 q 782 121 789 144 q 733 49 771 75 q 651 32 696 24 q 581 76 606 40 q 560 160 557 111 q 568 278 565 219 q 575 399 571 338 l 568 399 z "},"T":{"ha":621,"x_min":19,"x_max":851,"o":"m 563 883 l 563 186 q 557 126 563 154 q 536 71 551 97 q 417 3 496 -1 q 349 28 376 6 q 310 89 322 50 q 299 179 296 135 q 306 429 301 297 q 315 678 310 561 q 324 770 318 724 q 336 864 329 817 q 337 878 336 871 q 338 894 338 885 q 315 896 325 896 q 293 896 304 896 q 199 899 246 897 q 107 901 153 900 q 57 914 78 904 q 31 937 40 922 q 20 967 21 951 q 26 997 19 982 q 50 1021 33 1011 q 88 1037 68 1031 q 129 1043 108 1043 q 255 1047 192 1046 q 381 1042 318 1047 q 545 1039 464 1038 q 710 1051 626 1040 q 740 1056 725 1054 q 769 1054 754 1057 q 827 1028 804 1051 q 851 971 850 1004 q 830 914 851 939 q 772 886 808 889 q 689 883 731 883 q 606 883 647 883 l 563 883 z "},"S":{"ha":706,"x_min":29,"x_max":674,"o":"m 375 11 q 197 56 276 14 q 71 194 117 97 q 49 257 57 225 q 36 321 42 289 q 42 375 29 351 q 81 410 56 399 q 133 415 106 421 q 179 386 160 408 q 194 363 188 375 q 208 339 201 350 q 222 312 215 325 q 236 286 229 299 q 290 231 261 243 q 340 228 318 219 q 370 261 361 236 q 363 317 379 286 q 340 354 356 331 q 306 402 324 378 q 270 449 288 426 q 242 483 253 471 q 174 558 207 519 q 108 636 140 596 q 57 745 65 688 q 68 865 49 803 q 158 985 92 946 q 314 1014 225 1025 q 423 988 371 1007 q 521 936 475 969 q 560 902 542 921 q 594 865 578 883 q 606 850 601 858 q 613 833 610 842 q 592 768 628 790 q 551 760 572 757 q 519 781 531 763 q 458 835 494 819 q 382 861 422 850 q 364 864 374 864 q 346 864 354 864 q 313 862 329 864 q 289 840 297 860 q 288 799 281 824 q 311 761 296 774 q 383 704 347 733 q 454 646 418 675 q 504 601 479 624 q 553 553 529 579 q 665 324 644 454 q 658 211 674 267 q 606 112 642 156 q 517 40 571 68 q 397 11 464 13 l 375 11 z "},"R":{"ha":847,"x_min":31,"x_max":819,"o":"m 418 386 q 534 301 478 343 q 647 219 590 260 q 678 197 663 208 q 706 171 694 185 q 723 136 719 154 q 720 102 726 118 q 699 74 714 86 q 661 58 683 63 q 629 58 646 56 q 597 63 613 60 q 571 74 583 67 q 547 90 558 82 q 450 167 499 128 q 353 244 401 206 q 338 258 346 251 q 317 274 329 264 l 317 207 q 311 133 321 168 q 281 64 301 97 q 240 19 265 36 q 179 1 215 1 q 117 18 143 1 q 75 63 92 35 q 44 136 54 99 q 38 215 35 174 q 56 464 47 340 q 75 711 65 588 q 79 745 76 729 q 83 775 82 761 q 80 781 81 779 q 78 785 79 783 q 35 833 39 808 q 61 889 31 857 q 170 973 110 942 q 301 1018 231 1004 q 512 1017 411 1038 q 703 931 613 997 q 728 910 717 921 q 751 888 739 899 q 813 753 807 824 q 775 611 819 682 q 692 517 739 558 q 586 449 646 476 q 519 422 553 433 q 449 399 485 411 q 435 393 442 396 q 418 386 429 390 m 239 840 q 274 815 261 833 q 293 762 288 797 q 299 670 299 726 q 294 532 299 614 q 304 531 300 531 q 547 631 433 567 q 567 644 558 638 q 582 660 575 651 q 631 760 638 711 q 554 843 624 810 q 325 871 447 896 q 280 858 301 865 q 239 840 258 851 z "},"Q":{"ha":840,"x_min":24,"x_max":815,"o":"m 518 79 q 447 59 481 69 q 382 46 414 49 q 258 60 314 38 q 154 129 201 83 q 70 247 99 182 q 35 386 42 311 q 67 650 24 528 q 203 878 111 772 q 255 931 226 906 q 311 979 283 956 q 387 1014 347 1007 q 469 994 426 1021 q 488 989 478 990 q 508 983 499 988 q 705 878 629 951 q 804 682 781 806 q 811 558 815 619 q 788 436 807 497 q 727 300 764 364 q 636 182 690 236 q 628 172 632 176 q 619 160 624 167 q 641 133 631 146 q 663 107 651 119 q 663 28 697 63 q 623 9 647 11 q 579 22 599 7 q 546 51 560 36 q 518 79 532 65 m 522 296 q 612 428 581 360 q 646 579 643 496 q 635 665 647 625 q 596 737 622 704 q 532 792 569 769 q 449 824 494 814 q 393 744 419 785 q 344 661 367 704 q 347 582 324 621 q 430 447 389 515 q 511 310 471 379 q 522 296 517 306 m 283 431 q 272 366 274 397 q 279 307 269 335 q 311 238 290 268 q 356 209 331 213 q 413 221 382 206 q 348 326 381 274 q 283 431 315 378 z "},"P":{"ha":813,"x_min":38,"x_max":793,"o":"m 189 982 q 265 1015 229 999 q 339 1044 300 1032 q 578 1040 460 1083 q 685 978 639 1017 q 757 888 731 939 q 788 778 783 838 q 774 657 793 719 q 397 303 685 378 q 352 297 375 297 q 306 294 329 297 q 290 294 299 294 q 272 293 282 293 q 270 236 271 264 q 267 181 269 208 q 263 129 264 154 q 257 76 261 104 q 250 39 257 60 q 163 -28 225 -22 q 64 28 94 -32 q 51 58 57 42 q 44 92 46 75 q 38 317 38 210 q 42 526 39 425 q 50 722 46 626 q 53 908 54 817 q 65 951 56 931 q 92 983 75 971 q 133 997 108 996 q 189 982 157 997 m 265 482 q 370 495 319 488 q 465 526 421 503 q 606 690 568 581 q 615 772 619 733 q 590 840 610 810 q 537 890 571 871 q 458 914 503 910 q 349 901 399 921 q 253 854 299 882 q 259 667 256 758 q 265 482 263 576 z "},"O":{"ha":725,"x_min":29,"x_max":694,"o":"m 688 599 q 676 415 694 504 q 626 238 658 326 q 576 142 607 183 q 506 74 546 101 q 419 37 467 47 q 318 33 371 26 q 153 115 214 47 q 57 285 92 182 q 31 440 32 361 q 38 599 29 518 q 61 726 44 664 q 107 846 78 788 q 169 932 133 896 q 257 989 206 968 q 324 1015 290 1003 q 393 1028 357 1028 q 498 1003 450 1025 q 583 931 546 982 q 644 824 622 881 q 676 703 667 767 q 683 651 681 676 q 688 599 685 626 m 526 625 q 512 703 521 663 q 488 776 503 743 q 449 831 472 810 q 389 853 425 853 q 365 842 372 854 q 351 821 358 829 q 296 721 317 781 q 265 595 275 661 q 255 464 256 529 q 261 350 254 399 q 306 254 274 293 q 386 216 343 211 q 457 274 429 221 q 515 445 501 356 q 526 625 528 535 z "},"N":{"ha":788,"x_min":26,"x_max":763,"o":"m 533 372 q 537 444 536 408 q 539 515 538 479 q 550 672 546 594 q 561 829 554 750 q 563 879 563 854 q 568 928 564 904 q 599 983 575 964 q 657 1006 624 1003 q 716 992 690 1008 q 751 943 742 975 q 758 872 763 906 q 745 677 746 775 q 742 482 744 579 q 733 139 739 308 q 731 113 733 125 q 726 88 729 101 q 704 45 719 63 q 669 19 689 28 q 625 13 649 11 q 579 28 601 14 q 556 46 567 35 q 533 68 544 57 q 501 113 517 90 q 474 160 486 136 q 367 351 419 256 q 261 546 314 447 q 258 551 260 549 q 250 560 256 553 q 249 545 250 551 q 250 535 249 539 q 263 368 257 451 q 276 201 269 285 q 256 101 281 147 q 210 56 238 71 q 154 40 183 40 q 98 53 125 39 q 51 99 71 68 q 31 151 36 124 q 28 206 26 178 q 38 369 33 289 q 46 533 42 450 q 48 710 49 622 q 49 886 47 797 q 60 949 49 926 q 100 981 72 971 q 157 981 132 993 q 201 946 182 968 q 230 907 217 928 q 254 865 243 886 q 312 759 283 813 q 369 651 340 706 q 439 526 404 589 q 508 401 474 464 q 517 385 511 393 q 528 371 522 378 q 531 372 529 371 q 533 372 532 372 z "},"M":{"ha":1014,"x_min":31,"x_max":979,"o":"m 521 314 q 533 338 528 328 q 540 358 538 349 q 633 588 588 474 q 725 818 678 701 q 740 855 732 838 q 756 889 747 872 q 794 951 771 925 q 844 996 817 976 q 908 1008 875 1018 q 954 957 940 997 q 969 899 964 929 q 976 839 974 869 q 978 752 979 796 q 976 664 976 708 q 974 548 975 611 q 972 420 974 485 q 970 292 971 356 q 968 176 969 229 q 966 138 967 157 q 961 99 965 118 q 920 20 951 49 q 849 -7 889 -8 q 776 24 807 -6 q 738 103 744 54 q 735 132 735 118 q 735 161 735 146 q 735 224 735 188 q 735 300 735 261 q 737 376 736 339 q 738 439 738 413 q 737 461 738 450 q 731 486 736 472 q 722 467 726 476 q 714 449 717 458 q 652 308 683 378 q 597 163 621 238 q 563 112 585 129 q 515 93 540 94 q 464 105 489 92 q 424 143 439 118 q 360 255 389 197 q 307 372 332 313 q 286 414 300 396 q 284 401 285 407 q 283 388 283 394 q 288 290 286 339 q 294 193 290 242 q 243 49 299 108 q 172 11 211 14 q 97 39 132 8 q 33 192 31 96 q 38 315 36 254 q 42 439 39 376 q 47 618 44 529 q 51 799 49 707 q 54 857 53 828 q 58 915 56 886 q 128 1019 69 1003 q 190 1010 160 1026 q 240 960 221 994 q 247 943 243 951 q 254 928 251 935 q 380 635 317 781 q 507 342 443 489 q 513 329 510 335 q 521 314 517 324 z "},"L":{"ha":563,"x_min":42,"x_max":532,"o":"m 285 160 q 353 165 321 163 q 417 169 385 167 q 435 172 426 171 q 453 171 444 174 q 510 147 488 168 q 531 93 532 125 q 508 39 531 61 q 451 14 486 17 q 393 15 422 13 q 336 14 364 17 q 274 7 308 14 q 150 7 211 -6 q 81 40 106 14 q 44 115 56 67 q 42 128 42 122 q 42 139 42 133 q 42 313 42 222 q 46 494 43 403 q 56 675 49 585 q 75 849 63 765 q 81 892 76 871 q 90 933 85 913 q 129 994 101 972 q 193 1014 157 1015 q 256 988 231 1011 q 289 924 282 964 q 297 860 294 893 q 304 581 307 729 q 290 301 301 432 q 287 251 288 276 q 285 201 286 225 l 285 160 z "},"K":{"ha":710,"x_min":32,"x_max":686,"o":"m 292 586 q 307 606 300 597 q 318 622 314 615 q 359 685 336 649 q 406 758 382 721 q 454 831 431 796 q 494 892 478 867 q 523 927 507 911 q 554 958 539 943 q 594 985 569 975 q 669 965 636 1000 q 684 930 682 949 q 675 892 686 911 q 647 848 661 869 q 618 803 633 826 q 573 738 599 775 q 520 662 547 701 q 467 585 493 622 q 422 519 442 547 q 442 493 433 506 q 463 468 451 481 q 565 324 524 401 q 651 167 607 246 q 662 142 657 156 q 669 117 667 129 q 669 78 675 96 q 649 47 663 60 q 617 30 636 35 q 578 32 599 25 q 540 51 556 39 q 510 83 524 64 q 453 175 482 129 q 397 269 425 221 q 367 323 382 296 q 336 381 351 350 q 306 344 317 363 q 297 300 296 325 q 299 236 300 268 q 297 172 297 204 q 286 105 297 136 q 254 46 275 74 q 213 11 236 22 q 164 0 189 0 q 115 12 139 0 q 74 47 92 24 q 43 105 54 75 q 32 169 32 135 q 36 394 35 283 q 40 619 38 506 q 48 760 43 690 q 57 901 53 831 q 75 960 60 935 q 124 997 90 986 q 201 993 164 1013 q 250 929 238 974 q 265 848 260 889 q 274 767 271 807 q 281 690 279 728 q 285 615 282 653 q 288 602 286 608 q 292 586 289 596 z "},"J":{"ha":721,"x_min":25,"x_max":686,"o":"m 660 226 q 572 97 631 149 q 442 22 514 44 q 293 10 371 0 q 147 69 215 21 q 56 169 88 111 q 28 303 25 228 q 47 438 31 374 q 103 560 64 501 q 153 608 124 589 q 236 603 193 633 q 268 528 275 575 q 255 483 263 504 q 242 439 247 461 q 233 269 218 328 q 281 197 249 211 q 354 210 314 183 q 421 299 394 238 q 453 438 447 360 q 455 601 460 517 q 440 769 450 685 q 421 924 429 853 q 482 1024 417 1006 q 542 1015 514 1031 q 588 964 569 1000 q 624 866 607 925 q 654 738 642 807 q 675 594 667 668 q 685 451 683 519 q 681 324 686 382 q 660 226 675 265 z "},"a":{"ha":694,"x_min":31,"x_max":660,"o":"m 483 631 q 494 659 490 646 q 504 682 497 672 q 522 710 513 697 q 544 729 532 722 q 582 742 563 742 q 617 735 601 743 q 644 712 633 728 q 657 675 654 696 q 658 640 660 657 q 657 606 657 622 q 649 369 653 486 q 640 135 646 253 q 590 61 639 81 q 541 57 567 51 q 500 82 515 63 q 484 111 490 96 q 471 142 478 126 q 465 165 467 153 q 460 190 463 176 q 401 144 428 165 q 344 108 374 122 q 283 92 315 94 q 207 101 250 89 q 97 172 138 125 q 40 288 56 218 q 35 376 31 333 q 58 460 39 418 q 94 531 74 497 q 143 593 115 565 q 365 678 238 688 q 427 665 399 676 q 483 631 456 653 m 444 460 q 389 466 407 467 q 354 456 371 465 q 306 415 333 443 q 256 353 278 386 q 224 288 233 319 q 233 238 215 256 q 289 226 258 213 q 347 266 322 239 q 390 326 372 293 q 420 395 407 360 q 444 460 433 431 z "},"b":{"ha":749,"x_min":29,"x_max":731,"o":"m 303 576 q 373 623 339 604 q 446 649 407 642 q 569 646 513 663 q 663 591 625 629 q 715 497 700 553 q 715 375 731 440 q 632 222 693 281 q 478 138 571 164 q 319 160 399 117 q 309 165 314 163 q 297 171 304 168 q 285 116 290 143 q 272 61 279 89 q 265 38 269 49 q 257 15 261 26 q 158 -46 226 -47 q 99 -29 124 -46 q 64 19 75 -12 q 43 92 53 56 q 32 165 33 129 q 32 433 29 300 q 46 699 35 565 q 58 838 51 769 q 71 976 64 907 q 74 992 72 983 q 78 1008 75 1000 q 154 1079 94 1069 q 256 1038 217 1089 q 283 982 275 1011 q 294 921 292 953 q 299 783 297 851 q 303 643 300 714 l 303 576 m 435 501 q 398 474 415 489 q 365 443 381 460 q 335 383 340 417 q 344 322 331 349 q 386 281 357 294 q 457 283 415 268 q 501 308 479 292 q 538 348 522 325 q 563 397 554 371 q 572 447 572 422 q 558 496 572 479 q 524 518 544 513 q 478 519 503 524 q 435 501 454 514 z "},"c":{"ha":588,"x_min":22,"x_max":569,"o":"m 374 592 q 261 282 271 451 q 265 219 258 250 q 293 161 272 188 q 346 133 317 133 q 399 163 375 133 q 413 183 406 172 q 426 207 419 194 q 447 233 436 224 q 483 249 463 247 q 524 242 504 251 q 550 213 542 231 q 551 172 558 194 q 469 41 528 90 q 319 -6 411 -8 q 210 24 258 -3 q 125 97 163 50 q 67 194 89 142 q 38 303 46 247 q 35 488 22 399 q 96 661 47 578 q 191 771 136 726 q 322 831 246 815 q 476 811 404 849 q 541 758 517 790 q 568 681 565 726 q 567 658 569 669 q 560 635 564 646 q 523 604 547 610 q 475 615 499 599 q 420 634 442 640 q 374 592 399 628 z "},"d":{"ha":711,"x_min":22,"x_max":704,"o":"m 426 629 q 434 692 431 661 q 443 751 438 722 q 462 846 451 800 q 483 939 472 892 q 504 990 489 965 q 558 1035 525 1022 q 628 1039 592 1049 q 684 1001 664 1028 q 703 933 704 975 q 696 853 700 893 q 686 771 692 813 q 666 480 671 625 q 667 188 661 335 q 665 98 669 143 q 656 6 661 53 q 634 -50 653 -26 q 582 -83 615 -74 q 507 -81 543 -97 q 453 -28 471 -65 q 441 11 446 -8 q 432 50 436 31 q 424 113 428 82 q 415 179 421 144 q 401 166 408 172 q 388 154 394 160 q 296 94 346 113 q 207 81 250 78 q 128 106 164 85 q 68 162 93 126 q 35 244 43 197 q 40 379 22 313 q 107 517 63 457 q 224 618 151 578 q 401 638 307 664 q 413 633 407 635 q 426 629 418 632 m 404 471 q 335 511 364 510 q 269 478 307 513 q 199 343 211 424 q 203 283 194 307 q 228 249 211 258 q 267 248 244 240 q 314 285 290 256 q 367 375 347 326 q 404 471 386 424 z "},"e":{"ha":571,"x_min":29,"x_max":540,"o":"m 300 351 q 288 326 292 344 q 284 287 285 308 q 288 243 283 265 q 299 206 292 221 q 317 188 307 192 q 343 197 328 183 q 368 224 357 210 q 390 251 379 238 q 404 267 397 258 q 419 282 411 276 q 490 283 453 307 q 513 256 506 272 q 513 221 519 240 q 452 111 490 158 q 349 44 414 64 q 208 47 274 24 q 96 140 142 71 q 55 235 68 186 q 36 336 42 283 q 40 472 29 407 q 88 597 50 536 q 106 626 97 613 q 126 651 115 639 q 199 715 160 693 q 282 744 239 738 q 368 744 325 751 q 451 721 411 738 q 512 674 492 706 q 536 601 532 643 q 533 525 540 561 q 511 454 526 489 q 407 371 482 386 q 356 360 382 364 q 300 351 329 357 m 403 576 q 353 522 365 553 q 329 457 342 490 q 378 466 360 460 q 406 485 397 472 q 413 520 414 499 q 403 576 411 542 z "},"f":{"ha":690,"x_min":24,"x_max":678,"o":"m 142 289 q 114 288 126 289 q 89 289 101 288 q 29 325 40 289 q 33 358 24 342 q 61 385 42 374 q 81 392 71 389 q 103 397 92 394 q 122 401 114 400 q 136 406 129 403 q 149 502 143 454 q 165 599 156 550 q 199 710 176 656 q 254 814 221 764 q 342 903 290 867 q 465 953 394 940 q 537 956 501 958 q 606 938 572 953 q 671 868 656 914 q 672 833 678 850 q 651 808 667 817 q 617 801 636 799 q 581 817 597 804 q 570 826 575 821 q 560 838 565 832 q 504 793 515 832 q 492 747 497 769 q 483 700 486 724 q 472 572 476 636 q 461 442 467 507 q 462 429 461 435 q 464 417 463 424 q 522 413 486 414 q 578 408 557 411 q 605 400 592 404 q 631 390 618 396 q 658 366 650 382 q 660 335 665 350 q 641 306 656 317 q 604 294 626 294 q 556 293 586 293 q 507 294 525 293 q 483 296 494 296 q 456 297 471 296 l 456 215 q 455 105 458 160 q 438 -4 451 50 q 430 -30 433 -17 q 421 -56 426 -43 q 384 -102 408 -85 q 331 -124 360 -119 q 272 -119 301 -128 q 219 -86 242 -110 q 198 -58 207 -74 q 182 -25 189 -42 q 155 67 163 19 q 147 163 147 115 q 146 226 147 194 q 142 289 144 257 z "},"g":{"ha":693,"x_min":0,"x_max":657,"o":"m 486 707 l 510 731 q 603 743 556 763 q 656 668 651 722 q 657 647 657 661 q 657 388 657 517 q 656 128 657 258 q 599 -86 656 13 q 389 -204 528 -210 q 280 -173 326 -201 q 206 -86 233 -144 q 185 -28 192 -57 q 179 33 178 1 q 235 117 179 103 q 290 111 265 124 q 329 67 314 99 q 342 35 336 51 q 356 -1 349 18 q 408 64 389 29 q 436 136 426 99 q 449 213 446 174 q 456 294 453 253 q 431 275 439 283 q 392 242 411 260 q 351 211 374 224 q 252 178 301 182 q 160 192 203 174 q 86 248 118 210 q 42 342 54 286 q 126 663 0 524 q 195 717 157 696 q 276 747 233 739 q 362 750 318 756 q 447 726 406 744 q 466 717 457 722 q 486 707 475 713 m 447 544 q 421 563 432 554 q 397 576 410 571 q 335 589 365 589 q 276 569 304 589 q 236 530 253 556 q 210 473 219 504 q 201 410 201 442 q 213 356 201 379 q 238 328 222 335 q 274 335 253 322 q 335 389 310 357 q 391 465 364 425 q 447 544 418 504 z "},"h":{"ha":704,"x_min":39,"x_max":671,"o":"m 408 432 q 329 282 356 367 q 312 221 319 251 q 296 158 304 190 l 296 150 q 272 92 288 118 q 215 58 257 65 q 76 117 119 46 q 53 181 60 147 q 42 247 46 214 q 39 273 39 260 q 39 299 39 286 q 44 528 42 414 q 50 756 47 642 q 58 827 53 792 q 71 897 64 863 q 105 962 81 942 q 165 983 129 982 q 227 963 201 983 q 264 900 253 942 q 282 801 279 851 q 288 700 285 751 q 292 617 290 658 q 297 526 294 575 q 315 545 308 538 q 329 560 322 553 q 434 622 378 613 q 558 606 490 632 q 611 569 590 593 q 644 515 632 546 q 662 453 657 485 q 668 392 667 421 q 671 276 671 333 q 669 160 671 218 q 648 98 668 124 q 596 61 628 72 q 531 60 564 50 q 476 94 499 69 q 456 140 458 115 q 456 190 453 164 q 462 291 460 242 q 467 390 464 340 q 461 463 469 454 q 408 432 453 472 z "},"i":{"ha":301,"x_min":26,"x_max":267,"o":"m 250 151 q 233 108 243 126 q 135 51 200 47 q 46 119 69 56 q 30 186 33 151 q 29 257 26 221 q 44 401 36 329 q 60 544 51 472 q 71 592 61 569 q 131 642 86 635 q 176 637 156 644 q 208 608 196 629 q 235 535 228 575 q 250 438 242 486 q 263 340 258 389 q 265 244 267 292 q 250 151 263 197 m 138 679 q 76 701 100 679 q 50 758 51 724 q 76 824 49 797 q 143 850 103 850 q 207 826 181 850 q 233 768 233 801 q 206 706 233 732 q 138 679 178 681 z "},"j":{"ha":588,"x_min":19,"x_max":550,"o":"m 210 7 q 240 51 229 28 q 261 97 251 74 q 289 194 281 144 q 301 292 297 243 q 309 413 306 353 q 317 533 313 472 q 316 540 317 536 q 315 549 315 544 q 253 543 283 546 q 192 538 222 540 q 170 538 181 538 q 149 542 160 539 q 105 568 121 549 q 88 611 89 588 q 100 655 86 635 q 139 683 114 675 q 178 694 158 690 q 219 701 199 699 q 406 699 311 711 q 497 621 481 686 q 519 520 508 571 q 538 418 531 469 q 547 264 544 340 q 542 108 550 188 q 509 -22 533 40 q 438 -136 485 -83 q 332 -212 390 -189 q 203 -222 274 -235 q 56 -101 100 -203 q 26 13 32 -46 q 26 129 19 71 q 32 169 29 149 q 42 207 35 189 q 88 253 56 242 q 150 249 119 265 q 178 220 169 238 q 188 182 186 203 q 186 144 188 163 q 185 106 185 125 q 188 56 185 81 q 210 7 192 31 m 472 857 q 443 795 471 821 q 376 771 415 769 q 311 799 338 772 q 286 861 285 825 q 314 922 288 897 q 379 946 340 946 q 445 920 418 946 q 472 857 472 894 z "},"k":{"ha":663,"x_min":25,"x_max":651,"o":"m 403 396 q 515 301 461 347 q 611 193 569 254 q 619 99 651 133 q 581 78 604 79 q 525 90 557 78 q 459 129 488 107 q 405 178 431 151 q 353 231 379 204 q 296 285 328 258 q 292 249 292 260 q 284 165 293 204 q 261 85 275 125 q 222 26 247 47 q 163 6 197 6 q 90 35 117 7 q 48 103 63 64 q 29 187 33 143 q 28 263 25 231 q 44 510 36 388 q 60 758 51 633 q 66 822 63 790 q 75 885 69 853 q 81 910 78 897 q 89 935 85 922 q 171 989 113 989 q 219 975 199 989 q 247 936 239 961 q 263 881 257 908 q 272 825 268 853 q 278 749 276 786 q 283 674 281 711 q 285 655 285 664 q 288 631 286 646 q 302 648 296 642 q 314 661 308 654 q 360 708 338 685 q 406 751 382 731 q 454 778 428 771 q 511 786 481 785 q 568 776 544 788 q 606 744 592 764 q 626 699 621 724 q 628 651 631 675 q 578 536 619 589 q 513 469 549 499 q 436 417 476 440 q 420 407 428 413 q 403 396 413 401 m 517 693 q 429 630 465 669 q 369 538 393 590 q 456 602 417 565 q 517 693 496 639 z "},"l":{"ha":418,"x_min":19,"x_max":461,"o":"m 283 169 q 313 188 299 179 q 339 203 326 196 q 360 213 350 208 q 382 221 371 218 q 443 192 422 228 q 442 129 461 161 q 440 127 440 128 q 439 125 440 126 q 367 53 403 89 q 282 -8 331 17 q 226 -23 256 -21 q 169 -17 197 -25 q 116 10 142 -8 q 72 54 90 28 q 21 222 19 131 q 38 444 25 332 q 60 637 49 540 q 83 831 71 733 q 100 924 89 876 q 113 963 104 940 q 189 1010 138 1010 q 233 997 214 1008 q 260 960 253 985 q 274 909 268 935 q 281 857 281 883 q 283 647 283 751 q 283 439 283 543 l 283 169 z "},"m":{"ha":1111,"x_min":26,"x_max":1075,"o":"m 389 535 q 369 512 378 521 q 354 493 361 503 q 292 367 313 433 q 267 229 271 301 q 265 169 265 200 q 257 110 264 139 q 223 44 250 68 q 157 18 196 21 q 95 31 121 17 q 56 78 69 46 q 29 186 31 131 q 28 294 26 240 q 32 404 29 349 q 38 510 35 457 q 46 618 42 564 q 48 642 47 631 q 51 665 49 654 q 132 743 67 735 q 188 731 160 747 q 228 685 215 714 q 238 655 235 669 q 247 624 242 640 q 259 634 254 629 q 269 643 264 639 q 296 663 283 653 q 324 682 308 674 q 431 701 381 713 q 518 640 481 690 q 539 606 529 624 q 558 568 549 588 q 570 542 565 557 q 582 513 575 528 q 593 526 589 521 q 603 539 597 532 q 640 586 622 563 q 679 631 658 610 q 794 688 724 676 q 921 670 865 699 q 1007 576 976 642 q 1044 465 1032 521 q 1062 353 1057 408 q 1067 246 1067 299 q 1071 143 1068 193 q 1007 28 1075 67 q 942 9 975 10 q 878 28 910 8 q 828 75 844 46 q 814 142 813 104 q 819 186 815 165 q 826 229 824 207 q 834 340 831 285 q 840 451 838 396 q 828 510 843 501 q 791 508 813 519 q 747 472 769 496 q 713 431 724 447 q 646 300 671 368 q 606 158 621 232 q 599 128 603 143 q 588 97 594 113 q 554 56 576 69 q 504 40 532 43 q 415 89 446 35 q 395 148 397 117 q 397 213 393 179 q 407 289 403 251 q 414 367 411 326 q 415 422 417 394 q 410 476 413 449 q 401 503 407 490 q 389 535 396 517 z "},"n":{"ha":793,"x_min":32,"x_max":779,"o":"m 261 590 q 269 605 265 597 q 281 619 274 613 q 367 689 324 657 q 440 720 400 713 q 520 721 479 728 q 598 691 561 714 q 661 629 635 668 q 706 543 689 589 q 738 450 724 497 q 763 323 756 388 q 778 192 771 258 q 775 136 779 167 q 731 67 765 93 q 653 42 697 42 q 573 67 607 42 q 529 138 539 93 q 526 162 526 149 q 525 186 525 175 q 530 277 528 232 q 532 369 532 322 q 492 525 532 454 q 463 556 476 553 q 425 536 449 560 q 397 508 410 524 q 372 478 383 493 q 279 281 308 386 q 274 248 275 265 q 271 214 274 231 q 267 169 268 192 q 260 124 267 146 q 223 67 250 88 q 161 46 196 47 q 56 110 85 43 q 38 183 38 146 q 35 409 32 296 q 56 635 39 522 q 58 653 57 644 q 63 669 60 661 q 147 738 82 735 q 203 722 179 739 q 236 672 226 704 q 245 634 242 653 q 251 596 249 615 q 256 593 254 594 q 261 590 258 592 z "},"o":{"ha":622,"x_min":33,"x_max":576,"o":"m 574 442 q 565 344 572 389 q 542 254 557 299 q 506 181 526 215 q 453 119 485 147 q 356 69 408 79 q 250 71 303 58 q 101 155 150 94 q 43 292 53 215 q 56 450 33 368 q 125 600 79 532 q 203 678 158 649 q 307 715 249 708 q 501 639 426 728 q 557 544 538 594 q 574 442 576 494 m 435 439 q 422 502 435 478 q 390 532 408 526 q 351 523 371 538 q 317 471 331 508 q 294 394 303 432 q 292 313 285 356 q 313 248 299 264 q 343 238 326 232 q 377 268 360 244 q 408 322 394 292 q 429 385 421 353 q 435 439 438 417 z "},"p":{"ha":799,"x_min":32,"x_max":761,"o":"m 242 768 q 340 809 289 797 q 447 821 392 821 q 598 790 536 819 q 697 712 660 760 q 748 603 735 664 q 753 478 761 542 q 715 355 744 415 q 635 249 685 294 q 516 176 585 203 q 361 151 447 149 q 338 153 350 151 q 311 157 326 154 l 311 118 q 312 57 313 88 q 314 -4 311 26 q 308 -78 317 -43 q 288 -147 300 -112 q 250 -202 274 -181 q 190 -226 226 -224 q 123 -212 153 -231 q 73 -162 93 -193 q 42 -96 53 -132 q 32 -29 32 -60 q 33 248 33 110 q 36 525 33 386 q 45 618 38 572 q 64 708 53 664 q 110 781 75 758 q 188 792 144 803 q 213 782 200 789 q 242 768 226 775 m 304 325 q 381 314 339 304 q 463 351 424 324 q 532 420 501 379 q 574 503 563 461 q 574 584 586 546 q 518 644 563 622 q 338 647 431 686 q 300 621 315 639 q 288 589 288 608 q 291 530 289 564 q 295 459 293 496 q 299 388 297 422 q 304 325 301 353 z "},"q":{"ha":765,"x_min":28,"x_max":742,"o":"m 424 132 q 405 122 413 126 q 389 114 397 118 q 231 89 308 72 q 100 181 153 106 q 35 346 43 260 q 76 519 28 432 q 169 639 113 590 q 297 717 225 688 q 417 742 358 743 q 535 700 476 740 q 544 715 539 707 q 554 729 549 722 q 592 772 569 757 q 647 783 615 788 q 698 760 679 779 q 725 708 717 740 q 740 622 738 665 q 738 535 742 579 q 730 436 735 486 q 718 336 725 386 q 694 118 703 228 q 689 -103 686 8 q 656 -240 689 -176 q 546 -306 622 -308 q 442 -240 476 -306 q 433 -222 436 -231 q 426 -201 429 -212 q 413 -128 415 -165 q 413 -54 410 -92 q 418 22 415 -15 q 424 97 421 60 q 424 113 425 104 q 424 132 424 121 m 476 564 q 466 568 469 567 q 458 571 463 569 q 447 573 453 572 q 436 572 442 574 q 400 567 415 572 q 231 450 294 533 q 197 356 199 408 q 222 264 194 304 q 324 242 264 204 q 386 297 360 267 q 424 358 410 326 q 449 424 439 390 q 465 492 458 457 q 476 564 471 528 z "},"r":{"ha":688,"x_min":35,"x_max":660,"o":"m 332 519 q 308 465 317 493 q 304 403 300 436 q 312 310 310 356 q 315 215 314 264 q 312 163 315 189 q 300 111 308 136 q 255 45 285 69 q 178 18 225 21 q 102 41 138 15 q 51 110 67 67 q 36 218 35 164 q 49 429 42 324 q 64 640 57 535 q 71 685 67 663 q 79 729 75 707 q 113 790 89 768 q 172 813 138 811 q 233 793 208 814 q 269 733 258 772 q 272 726 271 731 q 275 715 272 722 q 288 724 282 719 q 301 731 294 728 q 356 762 329 746 q 411 789 382 778 q 522 794 472 813 q 603 718 571 775 q 649 583 638 653 q 651 440 660 514 q 648 416 649 429 q 644 392 647 403 q 581 325 633 336 q 528 328 553 318 q 490 363 504 339 q 478 393 483 376 q 471 426 472 410 q 471 483 469 454 q 475 540 472 513 q 466 620 481 603 q 428 626 451 638 q 379 585 406 615 q 332 519 353 554 z "},"s":{"ha":606,"x_min":22,"x_max":586,"o":"m 294 18 q 42 160 128 25 q 24 221 22 190 q 50 274 26 251 q 108 299 75 297 q 172 278 140 300 q 188 265 179 271 q 207 257 197 260 q 254 261 233 251 q 292 288 275 271 q 305 322 307 301 q 288 354 303 342 q 263 373 275 365 q 238 389 251 381 q 186 421 213 406 q 135 454 160 436 q 65 522 90 483 q 33 603 39 560 q 43 690 28 646 q 96 771 58 733 q 183 834 136 813 q 277 859 229 856 q 374 847 325 863 q 467 800 422 832 q 519 732 504 772 q 524 693 528 711 q 507 664 521 675 q 472 649 490 650 q 435 657 454 649 q 420 667 426 661 q 406 678 414 674 q 370 693 388 685 q 333 706 353 701 q 281 698 308 713 q 242 664 253 683 q 257 611 222 629 q 310 589 283 600 q 363 565 338 578 q 411 539 388 553 q 457 507 435 525 q 558 373 531 449 q 567 206 586 297 q 499 85 551 128 q 374 26 447 43 q 334 22 354 24 q 294 18 314 21 z "},"t":{"ha":664,"x_min":1,"x_max":632,"o":"m 111 540 q 88 540 99 540 q 65 540 76 539 q 23 556 40 543 q 4 589 6 569 q 15 624 1 608 q 54 646 29 639 q 71 649 63 649 q 89 651 79 650 q 128 656 107 654 q 136 726 132 692 q 147 794 140 760 q 162 863 154 831 q 181 929 169 896 q 220 986 193 967 q 282 1003 247 1006 q 346 978 319 1000 q 376 915 372 956 q 382 843 382 879 q 383 768 382 807 l 383 671 q 427 671 407 671 q 468 669 447 671 q 561 661 515 667 q 600 641 586 656 q 615 607 614 626 q 605 570 618 588 q 567 546 592 553 q 520 540 543 542 q 475 538 497 539 q 432 540 453 538 q 388 543 411 542 q 385 531 386 536 q 385 524 383 526 q 390 406 388 464 q 396 290 392 349 q 417 213 399 228 q 481 242 436 197 q 490 255 486 249 q 501 268 494 261 q 544 286 518 283 q 592 279 569 289 q 622 251 613 268 q 626 211 632 233 q 597 147 618 176 q 549 94 576 118 q 432 38 494 49 q 299 49 369 28 q 215 94 250 64 q 154 164 181 124 q 108 274 121 217 q 101 392 96 332 q 107 457 104 424 q 113 522 110 490 q 111 540 114 526 z "},"u":{"ha":668,"x_min":24,"x_max":638,"o":"m 278 519 q 278 358 269 424 q 306 258 288 293 q 347 217 324 222 q 392 236 371 211 q 427 315 413 261 q 442 454 442 369 q 438 495 442 475 q 431 536 435 515 q 424 577 426 557 q 422 618 421 597 q 442 678 426 650 q 476 704 454 697 q 525 708 499 711 q 597 656 581 701 q 635 447 638 547 q 594 257 632 346 q 517 138 564 186 q 417 65 471 89 q 307 42 364 40 q 199 71 250 43 q 106 154 147 99 q 44 294 65 210 q 30 458 24 378 q 64 617 36 538 q 96 674 74 644 q 145 711 115 701 q 208 711 175 721 q 257 679 239 701 q 276 625 275 657 q 277 572 278 597 q 278 519 276 546 z "},"v":{"ha":643,"x_min":22,"x_max":688,"o":"m 335 381 q 347 411 342 399 q 357 435 353 424 q 419 598 389 517 q 479 760 449 679 q 503 823 490 792 q 529 886 515 854 q 608 936 553 936 q 666 910 644 935 q 682 849 688 885 q 676 820 679 833 q 667 794 672 807 q 591 604 629 699 q 514 414 553 510 q 460 272 486 343 q 407 128 433 200 q 378 81 397 100 q 335 53 358 63 q 283 46 311 44 q 229 61 256 47 q 180 99 201 76 q 142 147 158 121 q 67 360 82 244 q 44 541 54 451 q 24 722 35 631 q 24 754 22 738 q 40 806 25 785 q 82 836 54 828 q 135 838 110 844 q 178 808 160 832 q 201 776 192 793 q 217 740 210 758 q 268 583 243 661 q 319 426 293 506 q 326 407 322 417 q 335 381 329 397 z "},"w":{"ha":1085,"x_min":24,"x_max":1046,"o":"m 290 265 q 338 325 319 293 q 371 392 357 357 q 399 463 386 428 q 425 533 411 497 q 494 632 444 596 q 569 647 532 660 q 619 590 607 635 q 630 537 626 563 q 636 483 633 511 q 682 313 647 393 q 700 279 689 294 q 722 249 711 264 q 776 249 751 214 q 806 292 792 269 q 828 338 821 314 q 847 415 839 375 q 857 493 854 454 q 867 649 864 572 q 875 804 871 725 q 921 871 878 856 q 969 872 944 878 q 1007 844 993 865 q 1024 810 1017 829 q 1032 771 1031 790 q 1041 592 1036 682 q 1035 414 1046 503 q 1014 306 1028 358 q 972 204 1000 253 q 949 167 961 185 q 924 133 938 149 q 849 74 890 94 q 763 51 807 54 q 676 65 719 49 q 593 114 632 81 q 545 169 565 139 q 508 233 525 199 q 499 251 503 242 q 489 272 494 261 q 479 258 483 264 q 471 246 475 253 q 435 188 451 217 q 394 133 418 158 q 354 96 376 114 q 308 65 332 78 q 199 46 254 33 q 103 107 143 58 q 47 225 63 158 q 36 407 24 315 q 107 646 54 531 q 142 700 121 678 q 200 732 164 722 q 251 733 226 739 q 296 713 276 728 q 328 676 315 699 q 340 628 340 654 q 336 586 340 608 q 314 435 325 511 q 292 285 303 360 q 291 275 290 279 q 290 265 292 271 z "},"x":{"ha":690,"x_min":36,"x_max":664,"o":"m 219 365 q 191 400 204 383 q 165 435 178 417 q 126 484 146 458 q 88 535 107 510 q 51 596 65 565 q 42 660 36 628 q 71 714 49 693 q 128 742 94 738 q 193 732 161 747 q 217 718 206 725 q 239 700 229 711 q 294 641 267 671 q 350 581 322 611 q 363 565 357 574 q 375 547 368 557 q 388 558 382 554 q 400 568 393 563 q 458 623 429 596 q 517 678 486 650 q 571 708 542 697 q 618 709 596 717 q 653 682 640 701 q 660 640 664 661 q 638 599 657 618 q 561 526 599 563 q 485 451 524 489 q 470 440 478 444 q 454 428 463 435 q 465 407 461 415 q 474 390 469 399 q 520 288 497 339 q 567 185 543 236 q 577 151 574 168 q 583 115 581 133 q 571 61 586 85 q 529 28 556 38 q 436 61 474 8 q 376 145 406 104 q 317 226 347 186 q 307 240 313 233 q 294 256 301 246 q 178 114 236 182 q 168 100 172 107 q 158 88 164 93 q 119 70 142 72 q 78 82 96 68 q 55 117 60 96 q 64 160 50 139 q 113 229 88 196 q 164 299 138 263 q 190 331 176 315 q 219 365 204 347 z "},"y":{"ha":732,"x_min":38,"x_max":697,"o":"m 419 228 q 401 219 408 222 q 386 211 393 215 q 261 162 317 167 q 163 183 206 157 q 93 258 121 208 q 51 373 65 308 q 38 511 38 438 q 54 657 39 585 q 96 720 61 693 q 172 753 131 747 q 249 738 213 758 q 293 658 285 717 q 295 620 296 639 q 293 582 294 601 q 294 414 286 472 q 319 338 303 356 q 358 338 336 321 q 399 396 379 356 q 435 494 419 436 q 454 614 450 551 q 466 666 456 640 q 492 712 476 692 q 531 744 508 732 q 581 753 553 756 q 661 688 643 742 q 672 649 668 668 q 679 611 676 631 q 694 414 690 515 q 681 216 697 313 q 623 33 664 119 q 506 -118 582 -53 q 403 -169 461 -154 q 290 -174 346 -183 q 190 -132 235 -165 q 129 -40 146 -99 q 122 -7 125 -24 q 115 26 118 10 q 123 70 113 51 q 156 96 133 89 q 199 94 178 103 q 232 61 221 85 q 243 38 239 50 q 250 13 247 25 q 268 -17 254 -6 q 299 -31 282 -28 q 332 -29 315 -35 q 360 -10 349 -24 q 392 41 381 14 q 411 99 404 68 q 421 160 418 129 q 419 228 424 192 z "},"z":{"ha":701,"x_min":14,"x_max":665,"o":"m 358 188 l 407 188 q 493 187 451 188 q 578 185 535 186 q 598 182 588 185 q 618 176 608 179 q 653 151 642 168 q 664 115 665 135 q 617 68 664 75 q 603 67 610 67 q 589 68 596 68 q 419 60 504 64 q 249 51 335 56 q 219 47 233 51 q 151 47 183 36 q 89 78 119 58 q 31 142 49 103 q 21 224 14 182 q 38 269 25 250 q 65 307 50 289 q 123 381 94 343 q 181 456 151 418 q 260 550 221 503 q 340 646 300 597 q 354 658 347 653 q 368 671 361 664 q 363 679 365 674 q 340 680 351 679 q 318 679 329 681 q 257 674 288 676 q 197 669 226 672 q 150 679 169 667 q 126 713 131 692 q 135 748 124 732 q 174 767 147 764 q 281 777 226 774 q 389 786 335 781 q 463 792 426 790 q 535 806 499 793 q 577 805 556 811 q 615 784 599 799 q 642 749 632 769 q 649 707 651 729 q 617 614 642 656 q 500 419 558 515 q 382 225 442 324 q 358 188 374 210 z "},"`":{"ha":329,"x_min":40,"x_max":292,"o":"m 206 840 q 130 873 165 847 q 63 922 94 899 q 44 953 47 935 q 50 990 40 972 q 72 1021 57 1011 q 106 1033 86 1031 q 188 1012 149 1035 q 260 969 226 989 q 287 931 282 954 q 283 889 292 908 q 255 853 276 867 q 206 840 233 840 z "},"~":{"ha":628,"x_min":43,"x_max":593,"o":"m 422 418 q 435 506 426 460 q 510 572 451 574 q 560 549 540 569 q 585 494 581 528 q 538 313 593 394 q 386 251 479 231 q 311 290 342 263 q 268 365 281 318 q 263 391 265 376 q 256 422 261 406 q 219 381 232 403 q 194 336 207 360 q 189 318 192 328 q 181 299 186 308 q 144 265 167 275 q 94 267 121 256 q 57 294 71 274 q 44 338 43 314 q 51 369 46 351 q 169 546 85 474 q 238 579 203 574 q 303 574 272 585 q 357 540 333 564 q 393 483 381 517 q 403 451 400 468 q 413 418 407 435 l 422 418 z "},"!":{"ha":296,"x_min":24,"x_max":264,"o":"m 60 367 q 55 431 57 396 q 51 501 53 465 q 49 572 50 538 q 46 635 47 606 q 38 751 40 693 q 33 868 36 808 q 33 902 33 885 q 36 938 33 919 q 67 1003 43 978 q 128 1032 92 1028 q 199 1020 165 1039 q 243 965 232 1001 q 259 881 254 931 q 264 776 264 832 q 260 660 264 719 q 250 547 256 601 q 238 444 244 492 q 226 365 232 397 q 194 292 218 317 q 142 267 169 268 q 90 292 114 267 q 60 367 65 317 m 125 22 q 53 50 83 22 q 25 117 24 78 q 56 182 26 156 q 126 208 86 208 q 196 181 167 208 q 224 115 225 154 q 194 49 222 75 q 125 22 165 22 z "},"@":{"ha":847,"x_min":18,"x_max":818,"o":"m 561 324 q 551 306 556 314 q 540 293 547 299 q 519 269 529 281 q 494 246 508 257 q 420 231 454 219 q 363 276 386 242 q 330 362 340 311 q 328 463 319 413 q 364 557 336 514 q 446 621 392 600 q 603 583 538 660 q 610 578 607 581 q 618 574 614 576 q 645 548 638 565 q 650 511 653 531 q 648 467 649 490 q 650 421 647 444 q 651 404 650 414 q 653 387 651 394 q 659 378 654 379 q 672 389 664 378 q 694 466 692 429 q 686 536 697 503 q 620 626 667 594 q 519 665 574 658 q 413 651 465 671 q 328 589 361 632 q 272 292 233 456 q 328 193 288 225 q 436 156 369 161 q 552 168 497 151 q 656 217 607 185 q 673 227 665 221 q 690 236 681 233 q 726 238 707 243 q 756 219 746 233 q 764 151 785 186 q 719 96 744 121 q 465 -7 613 0 q 396 -9 431 -10 q 328 0 361 -8 q 50 283 101 60 q 48 542 18 419 q 172 771 78 665 q 271 847 215 818 q 386 886 326 875 q 506 892 446 897 q 617 867 565 888 q 733 785 688 842 q 798 658 778 728 q 814 516 818 589 q 781 386 810 443 q 747 328 768 354 q 699 288 726 301 q 642 277 672 275 q 581 306 611 279 q 572 313 575 310 q 561 324 568 317 m 454 339 q 490 410 478 372 q 517 485 503 447 q 453 423 471 465 q 454 339 435 381 z "},"#":{"ha":903,"x_min":28,"x_max":875,"o":"m 194 551 q 213 635 204 596 q 231 714 221 674 q 238 738 235 725 q 249 764 242 751 q 336 808 275 813 q 383 791 364 806 q 408 749 401 776 q 418 693 418 725 q 419 628 419 661 q 419 560 419 596 l 519 560 q 524 574 522 567 q 529 590 526 582 q 558 670 544 632 q 588 749 572 708 q 600 777 593 764 q 618 800 607 790 q 656 824 635 818 q 698 826 678 831 q 734 806 718 821 q 757 767 750 790 q 762 742 761 754 q 763 717 763 731 q 763 676 764 697 q 763 635 763 654 q 759 593 761 614 q 756 553 757 572 q 778 547 768 549 q 799 540 789 544 q 839 515 821 532 q 847 460 865 492 q 797 428 835 426 q 774 430 786 428 q 747 435 761 432 q 744 410 744 422 q 740 383 743 399 q 759 382 751 382 q 775 379 767 382 q 807 369 790 374 q 839 357 824 365 q 867 325 860 344 q 867 286 875 306 q 842 258 860 267 q 801 251 824 249 q 788 255 794 253 q 774 257 781 257 q 747 260 760 260 q 719 263 735 261 q 707 210 713 235 q 696 158 701 185 q 690 142 693 151 q 683 126 686 133 q 649 76 672 93 q 593 58 625 58 q 536 76 561 58 q 500 124 511 93 q 483 229 490 172 q 482 246 482 236 q 482 268 482 256 l 433 268 l 381 268 q 376 196 378 231 q 372 128 375 161 q 300 43 365 56 q 242 53 269 39 q 201 99 214 68 q 187 151 190 125 q 176 203 183 178 q 175 222 175 213 q 174 243 175 232 q 149 240 160 242 q 128 238 139 238 q 101 235 114 236 q 76 238 89 235 q 40 256 53 240 q 28 290 28 271 q 69 340 28 329 q 109 351 90 347 q 147 360 128 354 q 160 363 154 361 q 175 368 167 364 l 175 438 q 146 439 160 439 q 119 440 132 439 q 103 440 111 440 q 86 440 94 439 q 48 463 63 446 q 35 501 33 479 q 53 540 38 525 q 94 556 69 556 q 142 554 118 556 q 194 551 167 553 m 403 436 q 402 416 403 425 q 400 396 401 407 l 488 396 q 491 415 489 406 q 494 436 493 425 l 403 436 z "},"$":{"ha":549,"x_min":25,"x_max":521,"o":"m 239 829 q 240 858 240 844 q 243 886 240 872 q 272 934 249 918 q 326 946 294 950 q 377 920 360 942 q 388 868 394 899 q 382 835 385 851 q 376 800 379 819 q 413 768 397 785 q 436 731 428 751 q 418 672 454 700 q 383 660 403 661 q 343 667 363 658 q 325 679 332 674 q 308 692 318 685 q 265 706 285 706 q 235 697 244 706 q 232 670 226 688 q 267 633 238 653 q 340 587 306 610 q 403 538 374 564 q 458 482 433 513 q 504 413 483 451 q 520 335 521 374 q 503 263 519 297 q 454 201 486 228 q 376 157 422 174 q 355 151 365 154 q 335 144 344 147 q 332 115 332 129 q 329 88 332 101 q 328 68 328 78 q 326 50 328 58 q 301 15 319 26 q 257 4 283 3 q 217 17 235 6 q 194 51 199 29 q 194 96 190 74 q 196 122 194 110 q 199 147 197 133 q 198 151 199 149 q 197 156 197 153 q 164 174 179 163 q 63 255 96 206 q 26 369 29 304 q 79 446 25 429 q 186 401 154 467 q 240 333 213 350 q 285 319 267 315 q 312 340 304 322 q 308 378 319 358 q 260 431 292 404 q 194 485 229 458 q 125 538 158 513 q 69 589 92 564 q 38 688 29 638 q 100 779 46 738 q 147 806 121 794 q 203 824 174 818 q 219 826 210 825 q 239 829 228 828 z "},"%":{"ha":771,"x_min":19,"x_max":719,"o":"m 60 114 q 74 184 64 151 q 99 247 85 217 q 133 306 114 278 q 171 365 151 335 q 281 532 226 449 q 394 699 336 615 q 454 778 422 740 q 518 854 486 815 q 574 890 543 879 q 626 896 601 901 q 672 872 650 890 q 688 786 711 833 q 677 768 682 776 q 667 750 672 760 q 490 471 569 614 q 329 183 410 328 q 288 118 310 150 q 239 58 265 86 q 189 25 217 35 q 128 25 161 15 q 76 58 94 33 q 60 114 58 82 m 182 850 q 232 842 207 851 q 276 816 257 833 q 308 773 296 799 q 318 715 319 747 q 309 681 317 699 q 292 644 301 663 q 256 610 279 622 q 203 597 232 599 q 144 600 172 596 q 89 618 117 604 q 38 660 56 633 q 21 719 19 686 q 97 825 21 792 q 139 844 119 832 q 182 850 158 856 m 200 729 q 180 733 189 732 q 164 736 171 735 q 147 732 153 738 q 140 718 140 726 q 144 708 140 714 q 154 699 149 701 q 174 696 164 696 q 194 694 183 696 q 197 713 196 706 q 200 729 197 721 m 440 100 q 410 158 411 126 q 424 219 408 190 q 467 268 439 247 q 528 293 496 289 q 551 300 542 293 q 620 309 588 315 q 682 281 653 303 q 713 231 707 257 q 710 176 719 206 q 608 71 682 104 q 519 60 565 51 q 440 100 472 68 m 549 194 q 542 184 546 188 q 539 178 539 181 q 537 166 538 172 q 539 156 536 160 q 569 137 549 132 q 602 156 590 142 q 606 184 614 169 q 549 194 597 199 z "},"^":{"ha":474,"x_min":40,"x_max":454,"o":"m 256 793 q 223 744 238 767 q 193 699 208 721 q 170 672 182 683 q 139 653 158 660 q 99 651 118 647 q 67 667 81 656 q 47 697 54 679 q 44 735 40 714 q 50 760 46 747 q 61 783 54 772 q 106 874 83 829 q 153 963 128 919 q 176 995 163 979 q 206 1022 189 1011 q 278 1037 242 1049 q 333 983 315 1025 q 353 930 344 957 q 372 878 361 903 q 397 819 383 847 q 422 760 410 790 q 400 663 454 688 q 351 658 375 647 q 307 701 326 669 q 293 723 300 713 q 279 746 286 733 q 269 769 274 757 q 256 793 264 781 z "},"&":{"ha":833,"x_min":24,"x_max":810,"o":"m 389 465 q 465 371 424 413 q 553 288 506 329 q 560 340 560 315 q 558 389 561 365 q 608 469 553 456 q 651 469 628 476 q 685 443 674 463 q 700 417 693 431 q 710 388 707 403 q 712 287 721 336 q 676 189 703 238 q 719 161 699 175 q 758 133 739 147 q 794 106 778 118 q 804 64 810 94 q 758 24 793 29 q 692 43 724 19 l 613 101 q 499 32 563 56 q 369 6 436 8 q 240 21 303 3 q 128 76 176 39 q 51 169 79 113 q 29 301 24 226 q 70 447 35 376 q 161 568 106 518 q 179 583 171 575 q 199 600 188 590 q 194 622 196 611 q 190 643 193 632 q 188 721 183 683 q 204 791 192 758 q 237 851 217 824 q 281 903 257 879 q 399 972 332 953 q 527 978 467 990 q 631 920 588 965 q 681 799 675 875 q 656 692 685 742 q 583 601 628 643 q 485 526 538 560 q 389 465 432 492 m 485 197 q 392 292 436 246 q 301 385 347 338 q 256 276 253 328 q 293 192 260 224 q 379 157 326 160 q 485 197 432 154 m 325 668 q 376 694 351 682 q 425 718 401 706 q 492 775 478 744 q 493 824 506 806 q 449 843 481 843 q 379 810 417 843 q 351 777 364 796 q 330 738 338 758 q 320 699 322 718 q 325 668 318 681 z "},"*":{"ha":556,"x_min":35,"x_max":515,"o":"m 401 789 q 431 763 417 775 q 460 738 446 750 q 489 689 485 714 q 476 644 493 664 q 433 624 457 625 q 382 643 410 624 q 358 660 369 650 q 329 681 346 669 q 328 643 328 660 q 326 611 328 626 q 272 544 322 549 q 228 558 246 542 q 203 604 210 575 q 201 628 201 617 q 199 656 200 640 q 178 644 188 649 q 163 632 169 639 q 145 622 153 626 q 126 613 138 618 q 88 612 107 606 q 57 636 68 618 q 71 706 35 672 q 96 726 82 717 q 125 747 110 736 q 146 766 136 757 q 169 786 156 775 q 137 806 151 797 q 107 822 122 814 q 85 836 96 829 q 64 850 75 843 q 45 885 49 865 q 50 921 42 904 q 78 946 60 938 q 117 947 96 954 q 147 938 132 944 q 175 924 161 931 q 190 917 182 921 q 208 910 197 914 q 211 948 210 929 q 215 985 213 967 q 267 1043 218 1040 q 326 986 319 1047 q 329 944 329 965 q 331 899 329 922 q 370 919 353 910 q 406 940 388 929 q 422 947 414 943 q 439 954 429 951 q 475 953 458 960 q 503 931 492 946 q 515 898 514 915 q 500 865 515 881 q 478 842 490 851 q 451 822 465 833 q 428 806 440 814 q 401 789 415 799 z "},"(":{"ha":497,"x_min":32,"x_max":519,"o":"m 358 1015 q 397 1025 376 1022 q 436 1028 417 1028 q 504 975 486 1025 q 476 892 519 928 q 456 878 467 885 q 433 865 444 872 q 349 789 385 835 q 288 689 313 743 q 253 578 264 635 q 246 467 243 521 q 260 372 249 419 q 292 283 271 325 q 344 209 313 242 q 419 160 376 176 q 467 103 456 136 q 464 38 479 69 q 413 -12 449 3 q 339 -17 378 -28 q 194 56 254 6 q 98 174 135 106 q 47 323 61 242 q 38 488 32 404 q 67 655 43 572 q 133 808 92 738 q 231 933 174 879 q 358 1015 288 988 z "},")":{"ha":522,"x_min":19,"x_max":494,"o":"m 343 75 q 270 16 306 39 q 196 -14 235 -7 q 87 -8 128 -25 q 33 44 46 10 q 35 122 19 78 q 99 207 51 165 q 207 342 164 264 q 265 503 250 419 q 264 672 281 588 q 192 826 247 756 q 159 863 176 846 q 122 896 142 881 q 86 981 68 938 q 120 1017 96 1003 q 174 1029 144 1032 q 238 1010 210 1025 q 292 972 267 996 q 370 885 338 933 q 426 783 403 838 q 478 600 461 696 q 487 410 494 504 q 444 230 479 317 q 343 75 410 143 z "},"-":{"ha":508,"x_min":33,"x_max":469,"o":"m 129 353 q 107 353 118 353 q 85 357 96 354 q 47 385 61 365 q 35 428 33 406 q 49 470 35 451 q 92 496 64 489 q 156 506 121 506 l 382 506 q 443 485 417 506 q 468 429 469 464 q 421 365 468 381 q 396 358 408 358 q 371 356 383 357 q 272 353 311 354 q 206 352 232 353 q 162 351 179 351 q 129 353 144 351 z "},"":{"ha":526,"x_min":31,"x_max":504,"o":"m 122 411 q 94 433 107 424 q 69 451 82 443 q 40 492 46 471 q 46 533 35 513 q 80 563 57 554 q 129 563 103 571 q 157 550 144 557 q 183 533 169 543 q 203 519 193 526 q 226 504 214 511 q 254 521 243 511 q 322 570 288 544 q 390 619 356 596 q 417 631 403 626 q 447 635 432 635 q 477 626 464 635 q 497 604 490 617 q 503 576 504 592 q 493 546 503 560 q 476 524 486 533 q 454 506 467 515 q 403 460 431 482 q 344 411 376 438 q 359 401 351 404 q 372 392 367 399 q 389 376 382 385 q 403 360 396 368 q 401 282 432 318 q 367 261 389 267 q 325 267 346 256 q 304 278 314 271 q 283 292 294 285 q 262 306 272 299 q 238 324 251 314 q 220 307 229 315 q 203 292 211 299 q 168 263 185 276 q 132 238 151 249 q 85 228 108 224 q 46 250 61 233 q 31 290 31 268 q 47 335 31 313 q 63 356 54 346 q 82 375 72 367 q 122 411 99 392 z "},"_":{"ha":713,"x_min":39,"x_max":672,"o":"m 392 24 q 274 18 332 21 q 156 13 215 15 q 108 13 132 11 q 65 31 82 15 q 44 71 47 47 q 51 115 39 94 q 92 144 63 136 q 156 159 124 154 q 224 167 189 164 q 350 174 286 171 q 476 176 414 176 q 536 174 501 176 q 601 163 571 172 q 651 135 631 154 q 671 83 672 117 q 647 36 669 56 q 588 11 625 17 q 538 10 563 8 q 490 16 514 13 q 441 22 465 19 q 392 24 417 25 z "},"":{"ha":549,"x_min":35,"x_max":515,"o":"m 242 499 q 328 503 286 501 q 415 506 371 504 q 451 502 433 506 q 483 492 468 499 q 506 472 497 485 q 515 440 515 458 q 502 402 515 417 q 469 380 489 388 q 426 370 449 372 q 388 368 404 368 q 242 373 314 369 q 99 381 171 376 q 52 401 69 383 q 35 442 35 418 q 52 482 35 465 q 99 500 69 499 q 169 501 133 503 q 242 500 206 500 l 242 499 m 236 185 q 175 208 200 185 q 150 264 150 232 q 176 324 150 300 q 239 347 201 347 q 300 322 276 346 q 322 264 324 299 q 297 208 322 231 q 236 185 272 185 m 347 608 q 324 560 346 581 q 271 540 301 539 q 219 561 240 540 q 199 611 197 582 q 220 659 199 639 q 274 679 242 679 q 326 657 304 678 q 347 608 347 636 z "},"+":{"ha":628,"x_min":22,"x_max":599,"o":"m 381 354 q 372 310 375 331 q 364 271 369 290 q 293 215 347 210 q 229 275 242 218 q 226 296 226 286 q 224 315 225 306 l 224 360 q 171 365 196 363 q 118 368 146 367 q 101 369 110 369 q 82 369 92 368 q 44 388 60 372 q 26 424 29 403 q 33 464 22 444 q 68 489 44 483 q 112 494 89 494 q 157 494 135 494 q 193 492 175 494 q 233 488 211 490 l 233 556 q 233 574 233 565 q 235 592 233 583 q 258 632 242 617 q 299 647 275 647 q 341 633 324 647 q 364 590 358 618 q 367 566 367 578 q 369 540 368 554 l 369 486 q 397 487 385 486 q 424 486 410 488 q 476 484 444 485 q 535 476 507 483 q 581 451 563 468 q 592 400 599 433 q 546 353 583 364 q 426 347 489 340 q 403 350 415 349 q 381 354 392 351 z "},"=":{"ha":504,"x_min":32,"x_max":464,"o":"m 356 401 q 439 371 400 401 q 458 340 454 357 q 454 307 461 322 q 399 271 442 271 q 255 274 326 272 q 113 279 183 275 q 99 279 106 279 q 86 282 92 279 q 43 325 50 289 q 63 385 32 363 q 114 403 88 400 q 237 406 176 411 q 356 401 297 401 m 154 476 q 133 482 144 479 q 113 489 122 485 q 82 542 82 506 q 90 572 82 558 q 114 592 99 585 q 156 601 135 604 q 274 597 208 600 q 392 589 340 593 q 444 568 425 586 q 461 524 464 550 q 435 480 458 496 q 378 467 411 464 q 323 470 353 469 q 263 472 293 471 q 205 473 233 472 q 154 476 176 474 z "},"[":{"ha":486,"x_min":15,"x_max":471,"o":"m 303 901 q 294 515 296 710 q 297 139 293 321 l 344 139 q 367 139 356 139 q 390 138 378 139 q 437 113 419 132 q 456 68 454 93 q 442 24 456 44 q 400 -4 428 3 q 314 -25 357 -15 q 224 -32 271 -35 q 122 8 157 -26 q 63 96 86 43 q 44 158 51 126 q 33 222 36 190 q 31 541 15 383 q 85 857 46 699 q 103 910 92 883 q 125 963 114 938 q 177 1029 142 1007 q 261 1051 213 1051 q 328 1047 294 1051 q 393 1039 361 1043 q 443 1018 422 1035 q 467 963 471 994 q 428 917 463 932 q 397 906 413 910 q 365 901 381 903 q 336 900 350 899 q 303 901 322 901 z "},"{":{"ha":469,"x_min":24,"x_max":438,"o":"m 114 382 q 95 390 103 388 q 79 396 88 392 q 42 427 56 407 q 26 469 28 447 q 33 511 24 490 q 65 544 42 532 q 117 596 106 565 q 131 663 128 626 q 135 731 133 696 q 140 799 136 767 q 174 908 147 858 q 254 992 200 958 q 311 1017 281 1011 q 374 1011 342 1022 q 386 1005 381 1008 q 396 999 392 1001 q 420 973 411 988 q 426 939 429 958 q 411 908 424 919 q 381 892 399 897 q 349 881 361 886 q 331 869 338 876 q 322 849 324 861 q 319 818 319 838 q 323 741 319 779 q 332 664 326 703 q 333 564 342 611 q 290 472 324 517 q 321 388 313 431 q 331 301 329 344 q 330 213 332 257 q 331 124 328 168 q 352 118 342 119 q 374 114 363 117 q 418 89 401 108 q 436 46 435 69 q 424 1 438 22 q 383 -28 410 -19 q 283 -41 329 -46 q 201 -14 236 -36 q 143 46 165 8 q 117 129 121 83 q 114 199 114 164 q 114 269 114 235 l 114 382 z "},"\\":{"ha":650,"x_min":31,"x_max":626,"o":"m 497 -12 q 369 85 406 -12 q 332 178 350 132 q 297 268 314 224 q 202 522 249 396 q 107 775 156 647 q 82 834 96 804 q 54 896 68 864 q 46 918 51 907 q 38 940 40 929 q 35 988 31 965 q 61 1028 40 1010 q 108 1049 81 1046 q 158 1035 136 1051 q 196 1004 178 1021 q 225 968 214 988 q 304 830 265 899 q 376 690 343 761 q 492 438 438 564 q 606 182 547 311 q 612 163 608 172 q 618 143 615 154 q 620 83 626 111 q 597 34 614 56 q 555 0 581 13 q 497 -12 529 -12 z "},"|":{"ha":299,"x_min":29,"x_max":261,"o":"m 254 161 q 244 97 251 131 q 221 34 236 63 q 182 -12 206 6 q 125 -25 158 -29 q 69 1 93 -22 q 39 61 46 24 q 31 160 29 111 q 36 290 32 225 q 44 419 40 354 q 53 573 49 497 q 63 728 58 649 q 67 827 65 776 q 71 926 68 878 q 76 972 71 951 q 131 1019 90 1015 q 176 1015 160 1022 q 202 992 193 1007 q 215 958 211 978 q 224 915 219 938 q 249 722 242 818 q 259 531 257 625 q 258 343 261 436 q 254 161 256 250 z "},";":{"ha":279,"x_min":35,"x_max":231,"o":"m 214 189 q 204 116 214 149 q 171 56 194 83 q 145 35 160 44 q 115 19 131 25 q 80 19 96 14 q 53 37 64 25 q 38 65 42 49 q 42 100 35 82 q 63 165 53 132 q 76 232 72 197 q 99 270 82 256 q 140 286 117 285 q 183 272 164 286 q 210 229 203 257 q 213 207 213 218 q 214 189 213 196 m 146 572 q 206 549 181 572 q 231 493 231 525 q 206 440 231 463 q 149 417 182 417 q 88 440 114 417 q 61 493 61 463 q 83 548 58 525 q 146 572 108 571 z "},"'":{"ha":271,"x_min":36,"x_max":233,"o":"m 104 703 q 56 725 76 703 q 43 778 36 747 q 66 878 56 826 q 101 972 76 931 q 140 1002 117 994 q 188 1000 164 1010 q 222 973 210 993 q 232 928 233 953 q 228 904 232 917 q 201 828 214 867 q 174 754 189 790 q 148 717 164 731 q 104 703 132 704 z "},"?":{"ha":671,"x_min":32,"x_max":644,"o":"m 32 717 q 49 826 32 775 q 98 916 67 876 q 173 983 129 956 q 269 1022 217 1010 q 433 1023 357 1042 q 571 938 508 1004 q 637 796 629 871 q 599 646 644 721 q 554 584 579 614 q 503 529 529 554 q 424 440 460 488 q 358 340 388 392 q 351 324 356 332 q 344 306 347 317 q 274 243 329 251 q 220 251 243 240 q 183 289 197 261 q 178 486 132 389 q 217 551 196 521 q 263 613 239 582 q 315 676 288 644 q 369 742 343 707 q 375 746 372 743 q 395 806 397 781 q 374 848 393 832 q 326 868 356 864 q 266 864 297 872 q 206 833 235 856 q 161 772 178 810 q 146 720 149 744 q 157 669 143 696 q 165 657 161 663 q 169 644 168 651 q 158 592 182 614 q 133 576 147 581 q 104 579 119 571 q 78 596 90 586 q 58 619 67 606 q 37 672 42 644 q 32 717 32 699 m 258 25 q 196 50 221 26 q 172 108 171 74 q 200 164 175 140 q 261 188 225 188 q 322 163 297 186 q 344 106 346 139 q 318 48 343 71 q 258 25 293 25 z "},"<":{"ha":549,"x_min":32,"x_max":526,"o":"m 290 879 q 372 824 332 853 q 453 764 413 796 q 474 744 464 756 q 492 721 485 732 q 486 625 526 667 q 438 601 465 606 q 382 610 410 597 q 290 652 335 632 q 201 693 246 672 q 173 705 186 700 q 144 717 160 710 q 95 767 108 736 q 93 832 82 799 q 125 881 103 863 q 176 904 147 899 q 235 903 204 910 q 290 879 265 897 m 501 339 q 517 282 525 314 q 476 235 510 250 q 365 172 417 207 q 261 97 314 136 q 224 75 243 83 q 182 68 206 67 q 137 79 156 68 q 108 108 118 90 q 100 148 99 126 q 115 192 101 169 q 131 211 122 201 q 147 229 139 221 q 247 297 196 267 q 353 350 297 328 q 394 361 374 356 q 433 367 414 367 q 469 361 451 367 q 501 339 486 356 m 133 547 q 187 545 161 547 q 240 543 213 543 q 301 544 271 543 q 360 546 331 546 q 392 542 375 546 q 422 522 411 536 q 431 490 433 508 q 415 459 428 472 q 383 444 403 446 q 267 426 322 433 q 158 404 213 418 q 147 401 153 403 q 135 399 142 399 q 90 403 111 396 q 54 426 68 411 q 36 461 40 440 q 44 506 32 482 q 81 540 60 529 q 133 547 101 550 z "},"]":{"ha":501,"x_min":19,"x_max":475,"o":"m 188 114 q 196 500 194 306 q 193 876 197 694 l 146 876 q 124 876 135 876 q 100 878 113 876 q 53 903 71 883 q 35 947 36 922 q 49 992 35 971 q 90 1019 63 1013 q 176 1040 133 1031 q 267 1047 219 1050 q 369 1007 333 1042 q 428 919 404 972 q 447 857 439 889 q 457 793 454 825 q 460 474 475 632 q 406 158 444 317 q 388 105 399 132 q 365 53 376 78 q 313 -14 349 8 q 229 -36 278 -36 q 163 -32 196 -36 q 97 -24 129 -28 q 47 -3 68 -19 q 24 52 19 21 q 63 99 28 83 q 94 109 78 106 q 125 114 110 113 q 154 115 140 117 q 188 114 168 114 z "},"}":{"ha":469,"x_min":31,"x_max":444,"o":"m 354 611 q 373 603 365 606 q 389 597 381 601 q 426 566 413 586 q 442 524 440 546 q 435 482 444 503 q 403 449 425 461 q 351 397 363 428 q 338 331 340 367 q 333 262 335 297 q 328 194 332 226 q 294 85 321 135 q 214 1 268 35 q 157 -24 188 -18 q 94 -18 126 -29 q 82 -12 88 -15 q 72 -6 76 -8 q 48 20 57 6 q 42 54 39 35 q 57 85 44 74 q 88 101 69 96 q 119 112 107 107 q 138 124 131 117 q 147 144 144 132 q 149 175 149 156 q 145 252 149 214 q 136 329 142 290 q 135 429 126 382 q 178 521 144 476 q 147 606 156 563 q 138 692 139 649 q 138 781 136 736 q 138 869 139 825 q 116 875 126 874 q 94 879 106 876 q 50 904 67 885 q 32 947 33 924 q 44 992 31 971 q 85 1021 58 1013 q 185 1034 139 1039 q 267 1007 232 1029 q 325 947 303 985 q 351 864 347 910 q 354 794 354 829 q 354 724 354 758 l 354 611 z "},">":{"ha":549,"x_min":18,"x_max":513,"o":"m 254 879 q 310 903 279 897 q 368 904 340 910 q 419 881 396 899 q 451 832 442 863 q 449 767 463 799 q 400 717 436 736 q 372 705 385 710 q 343 693 358 700 q 254 652 299 672 q 163 610 210 632 q 107 601 135 597 q 58 625 79 606 q 53 721 18 667 q 70 744 60 732 q 92 764 81 756 q 172 824 132 796 q 254 879 213 853 m 43 339 q 76 361 58 356 q 112 367 93 367 q 151 361 131 367 q 192 350 171 356 q 298 297 247 328 q 397 229 349 267 q 414 211 406 221 q 429 192 422 201 q 444 148 443 169 q 436 108 446 126 q 408 79 426 90 q 363 68 389 68 q 320 75 339 67 q 283 97 301 83 q 179 172 231 136 q 68 235 128 207 q 27 282 35 250 q 43 339 19 314 m 411 547 q 464 540 443 550 q 500 506 485 529 q 508 461 513 482 q 490 426 504 440 q 455 403 476 411 q 410 399 433 396 q 397 401 403 399 q 386 404 392 403 q 277 426 332 418 q 161 444 222 433 q 129 459 142 446 q 114 490 117 472 q 122 522 111 508 q 153 542 133 536 q 185 546 169 546 q 244 544 214 546 q 304 543 274 543 q 358 545 332 543 q 411 547 383 547 z "},"/":{"ha":650,"x_min":42,"x_max":638,"o":"m 171 -12 q 113 0 139 -12 q 71 34 88 13 q 48 83 54 56 q 50 143 42 111 q 56 163 53 154 q 63 182 60 172 q 176 438 121 311 q 292 690 231 564 q 364 830 325 761 q 443 968 403 899 q 472 1004 454 988 q 510 1035 490 1021 q 560 1049 532 1051 q 607 1028 588 1046 q 633 988 628 1010 q 631 940 638 965 q 622 918 628 929 q 614 896 617 907 q 586 834 600 864 q 561 775 572 804 q 466 522 513 647 q 371 268 419 396 q 336 178 354 224 q 299 85 318 132 q 171 -12 263 -12 z "},":":{"ha":279,"x_min":58,"x_max":231,"o":"m 146 572 q 206 549 181 572 q 231 493 231 525 q 206 440 231 463 q 149 417 182 417 q 88 440 114 417 q 61 493 61 463 q 83 548 58 525 q 146 572 108 571 m 146 296 q 206 272 181 296 q 231 217 231 249 q 206 163 231 186 q 149 140 182 140 q 88 163 114 140 q 61 217 61 186 q 83 272 58 249 q 146 296 108 294 z "},",":{"ha":246,"x_min":17,"x_max":196,"o":"m 196 118 q 186 45 196 78 q 153 -15 176 13 q 127 -36 142 -26 q 97 -51 113 -46 q 62 -51 78 -57 q 35 -34 46 -46 q 20 -6 24 -22 q 24 29 17 11 q 44 94 35 61 q 58 161 54 126 q 81 199 64 185 q 122 215 99 214 q 165 201 146 215 q 192 158 185 186 q 194 136 194 147 q 196 118 194 125 z "},".":{"ha":236,"x_min":33,"x_max":206,"o":"m 121 190 q 181 167 156 190 q 206 111 206 143 q 181 58 206 81 q 124 35 157 35 q 63 58 89 35 q 36 111 36 81 q 58 166 33 143 q 121 190 83 189 z "},"D":{"ha":813,"x_min":25,"x_max":792,"o":"m 299 28 q 223 26 261 26 q 147 29 185 26 q 65 69 99 33 q 28 157 31 104 q 26 205 25 181 q 29 254 26 229 q 46 494 38 375 q 64 733 54 613 q 72 803 68 769 q 83 871 76 836 q 124 946 93 925 q 208 960 154 967 q 223 960 215 958 q 238 964 231 961 q 381 998 308 994 q 526 982 453 1001 q 667 903 611 960 q 753 770 724 846 q 788 606 783 694 q 772 428 792 517 q 713 261 753 340 q 612 125 672 182 q 472 40 551 68 q 299 28 393 13 m 283 203 q 315 207 300 206 q 342 213 329 208 q 454 290 408 231 q 523 427 500 350 q 544 586 546 504 q 515 730 543 668 q 433 822 488 792 q 293 824 378 851 q 292 672 294 750 q 288 513 290 593 q 284 354 286 433 q 283 203 282 275 z "},"":{"ha":271,"x_min":36,"x_max":233,"o":"m 104 703 q 56 725 76 703 q 43 778 36 747 q 66 878 56 826 q 101 972 76 931 q 140 1002 117 994 q 188 1000 164 1010 q 222 973 210 993 q 232 928 233 953 q 228 904 232 917 q 201 828 214 867 q 174 754 189 790 q 148 717 164 731 q 104 703 132 704 z "},"":{"ha":271,"x_min":36,"x_max":233,"o":"m 104 703 q 56 725 76 703 q 43 778 36 747 q 66 878 56 826 q 101 972 76 931 q 140 1002 117 994 q 188 1000 164 1010 q 222 973 210 993 q 232 928 233 953 q 228 904 232 917 q 201 828 214 867 q 174 754 189 790 q 148 717 164 731 q 104 703 132 704 z "},"\"":{"ha":471,"x_min":36,"x_max":432,"o":"m 104 703 q 56 725 76 703 q 43 778 36 747 q 66 878 56 826 q 101 972 76 931 q 140 1002 117 994 q 188 1000 164 1010 q 222 973 210 993 q 232 928 233 953 q 228 904 232 917 q 201 828 214 867 q 174 754 189 790 q 148 717 164 731 q 104 703 132 704 m 303 703 q 255 725 275 703 q 242 778 235 747 q 265 878 254 826 q 300 972 275 931 q 339 1002 315 994 q 386 1000 363 1010 q 420 973 408 993 q 431 928 432 953 q 426 904 431 917 q 400 828 413 867 q 372 754 388 790 q 347 717 363 731 q 303 703 331 704 z "},"":{"ha":471,"x_min":36,"x_max":432,"o":"m 104 703 q 56 725 76 703 q 43 778 36 747 q 66 878 56 826 q 101 972 76 931 q 140 1002 117 994 q 188 1000 164 1010 q 222 973 210 993 q 232 928 233 953 q 228 904 232 917 q 201 828 214 867 q 174 754 189 790 q 148 717 164 731 q 104 703 132 704 m 303 703 q 255 725 275 703 q 242 778 235 747 q 265 878 254 826 q 300 972 275 931 q 339 1002 315 994 q 386 1000 363 1010 q 420 973 408 993 q 431 928 432 953 q 426 904 431 917 q 400 828 413 867 q 372 754 388 790 q 347 717 363 731 q 303 703 331 704 z "},"":{"ha":471,"x_min":36,"x_max":432,"o":"m 104 703 q 56 725 76 703 q 43 778 36 747 q 66 878 56 826 q 101 972 76 931 q 140 1002 117 994 q 188 1000 164 1010 q 222 973 210 993 q 232 928 233 953 q 228 904 232 917 q 201 828 214 867 q 174 754 189 790 q 148 717 164 731 q 104 703 132 704 m 303 703 q 255 725 275 703 q 242 778 235 747 q 265 878 254 826 q 300 972 275 931 q 339 1002 315 994 q 386 1000 363 1010 q 420 973 408 993 q 431 928 432 953 q 426 904 431 917 q 400 828 413 867 q 372 754 388 790 q 347 717 363 731 q 303 703 331 704 z "},"A":{"ha":631,"x_min":6,"x_max":606,"o":"m 435 222 q 329 213 379 217 q 229 203 279 208 q 226 186 228 194 q 225 171 225 178 q 224 133 224 151 q 224 96 225 114 q 157 3 221 19 q 92 8 124 -6 q 46 53 61 21 q 33 88 38 69 q 25 126 28 107 q 38 503 6 319 q 158 861 71 686 q 186 908 171 885 q 218 956 201 932 q 283 1018 243 989 q 335 1042 308 1035 q 387 1044 361 1049 q 435 1026 413 1040 q 476 988 458 1011 q 504 941 492 965 q 526 893 517 917 q 562 768 550 831 q 583 640 574 706 q 603 394 600 517 q 599 147 606 272 q 590 93 599 118 q 558 48 581 63 q 504 36 535 33 q 460 59 476 40 q 440 110 443 78 q 438 165 439 138 q 435 222 438 192 m 431 350 q 424 478 426 414 q 416 606 422 543 q 397 730 410 668 q 360 853 383 792 q 305 731 326 793 q 270 603 283 668 q 249 473 257 539 q 233 339 240 407 q 333 345 285 343 q 431 350 381 347 z "},"B":{"ha":794,"x_min":28,"x_max":783,"o":"m 214 68 q 198 56 206 61 q 183 44 190 50 q 138 29 161 31 q 95 37 115 28 q 60 65 75 46 q 40 108 44 83 q 37 136 38 122 q 35 164 36 150 q 33 435 28 301 q 53 706 38 569 q 62 786 57 746 q 72 868 67 826 q 77 899 75 883 q 86 929 79 914 q 167 989 106 986 q 253 935 225 989 q 259 917 256 926 q 265 897 263 908 q 283 914 275 906 q 299 929 290 922 q 386 997 339 968 q 492 1038 433 1026 q 615 1031 558 1049 q 718 964 672 1014 q 774 851 765 911 q 760 725 783 790 q 713 636 743 676 q 643 561 682 596 q 625 546 633 554 q 607 529 617 538 q 624 519 617 524 q 639 508 632 514 q 739 388 708 460 q 751 239 769 315 q 673 94 733 154 q 529 21 613 33 q 378 17 451 8 q 235 61 306 25 q 226 65 231 64 q 214 68 221 65 m 275 564 l 300 564 q 405 588 353 575 q 506 628 457 601 q 636 767 597 676 q 621 874 664 826 q 513 901 575 922 q 413 835 457 879 q 337 741 369 792 q 285 632 304 690 q 278 600 279 617 q 275 564 278 583 m 278 408 q 266 311 271 358 q 254 215 261 264 q 348 177 294 192 q 443 167 401 163 q 484 172 464 168 q 521 188 504 176 q 567 229 550 203 q 585 285 583 256 q 575 342 588 314 q 536 390 563 371 q 397 429 474 436 q 339 419 368 425 q 278 408 310 413 z "},"C":{"ha":688,"x_min":17,"x_max":661,"o":"m 279 463 q 288 377 276 418 q 317 296 300 336 q 376 228 335 250 q 456 249 426 206 q 471 272 465 260 q 483 297 476 285 q 501 324 492 310 q 521 349 510 338 q 565 369 539 367 q 613 361 590 372 q 653 278 661 335 q 602 144 643 200 q 501 60 561 88 q 372 35 442 32 q 238 78 303 38 q 136 168 176 115 q 71 286 96 221 q 27 548 17 421 q 108 800 38 675 q 251 938 163 897 q 451 964 339 979 q 565 919 517 956 q 638 821 613 883 q 647 787 644 806 q 647 750 649 768 q 634 717 647 729 q 601 701 621 704 q 543 738 560 694 q 536 757 539 743 q 500 804 526 792 q 442 801 474 817 q 391 769 414 788 q 353 722 368 750 q 299 597 317 663 q 279 463 282 532 z "},"":{"ha":6019,"x_min":44,"x_max":5971,"o":"m 253 538 q 313 538 283 538 q 371 539 343 539 q 387 539 379 539 q 404 536 394 539 q 435 517 424 531 q 443 485 446 503 q 428 453 440 467 q 396 439 415 440 q 280 420 335 428 q 171 399 225 413 q 160 396 165 397 q 146 394 154 394 q 101 399 122 392 q 67 421 81 406 q 49 457 53 436 q 56 501 44 478 q 92 533 71 522 q 146 542 113 544 q 199 540 174 542 q 253 538 225 538 m 465 758 q 486 738 476 750 q 504 715 496 726 q 497 621 538 661 q 450 597 478 601 q 394 604 422 592 q 303 647 347 626 q 214 688 258 667 q 185 699 197 694 q 157 711 172 704 q 107 763 121 732 q 104 828 93 793 q 137 875 114 857 q 188 899 160 893 q 246 898 215 904 q 303 874 276 892 q 384 819 343 847 q 465 758 425 790 m 489 229 q 376 165 428 201 q 272 92 325 129 q 237 69 256 78 q 194 61 218 60 q 149 74 168 63 q 121 103 131 85 q 112 142 111 121 q 128 186 113 164 q 142 206 135 196 q 160 224 150 217 q 258 292 207 261 q 364 344 310 322 q 444 361 406 357 q 514 333 482 365 q 529 276 536 308 q 489 229 522 244 m 1101 511 q 1110 667 1106 589 q 1122 824 1115 744 q 1124 874 1124 849 q 1129 922 1125 899 q 1161 978 1136 958 q 1219 1000 1186 999 q 1278 987 1251 1003 q 1313 938 1304 971 q 1321 902 1319 919 q 1321 868 1322 885 q 1306 672 1307 771 q 1303 476 1306 574 q 1300 305 1303 390 q 1294 133 1297 219 q 1293 108 1294 119 q 1288 82 1292 96 q 1265 39 1281 57 q 1230 13 1250 21 q 1186 6 1210 4 q 1140 22 1163 8 q 1116 40 1128 29 q 1096 61 1104 50 q 1063 107 1079 85 q 1035 153 1047 129 q 928 346 981 250 q 824 539 876 442 q 819 544 822 542 q 811 554 817 547 q 810 540 811 546 q 811 529 810 533 q 824 363 818 446 q 838 196 831 279 q 817 96 843 144 q 772 50 799 65 q 715 34 744 35 q 659 49 686 33 q 613 93 632 64 q 592 144 597 118 q 589 200 588 171 q 598 364 594 283 q 606 528 601 444 q 608 706 608 618 q 608 882 607 793 q 661 975 608 960 q 717 976 693 988 q 761 940 742 964 q 791 902 778 922 q 815 860 804 882 q 873 754 844 807 q 931 647 901 701 q 999 521 965 583 q 1069 394 1033 458 q 1079 381 1074 388 q 1089 367 1085 374 q 1093 367 1092 367 q 1096 368 1094 368 q 1098 438 1097 403 q 1101 511 1099 474 m 1890 250 q 1855 176 1876 210 q 1801 114 1833 142 q 1704 63 1757 74 q 1600 65 1651 53 q 1451 149 1500 89 q 1393 285 1403 208 q 1406 444 1383 361 q 1475 594 1429 526 q 1553 674 1508 643 q 1656 711 1597 704 q 1851 633 1775 724 q 1907 539 1888 589 q 1924 436 1926 489 q 1913 339 1921 385 q 1890 250 1906 293 m 1665 465 q 1642 388 1651 425 q 1640 307 1633 350 q 1661 242 1647 258 q 1692 233 1675 226 q 1726 263 1708 239 q 1756 317 1743 286 q 1777 378 1769 347 q 1783 433 1785 410 q 1770 497 1783 472 q 1738 526 1757 521 q 1699 517 1719 532 q 1665 465 1679 503 m 2803 364 q 2913 632 2858 499 q 3024 900 2968 765 q 3043 945 3033 922 q 3065 990 3053 968 q 3100 1026 3079 1014 q 3150 1036 3121 1039 q 3203 1015 3182 1035 q 3222 964 3225 996 q 3220 931 3222 947 q 3211 901 3218 915 q 3081 579 3146 739 q 2949 260 3015 419 q 2905 174 2929 215 q 2854 92 2881 132 q 2756 21 2814 29 q 2639 60 2697 13 q 2591 114 2611 83 q 2558 176 2571 144 q 2510 366 2531 278 q 2476 531 2490 454 q 2449 678 2461 608 q 2422 813 2436 747 q 2415 862 2415 838 q 2414 910 2414 886 q 2429 960 2414 939 q 2474 992 2444 982 q 2528 995 2501 1003 q 2574 964 2554 988 q 2598 931 2588 949 q 2617 896 2608 913 q 2690 708 2661 804 q 2739 513 2719 611 q 2756 422 2747 465 q 2775 331 2764 378 l 2785 331 q 2795 347 2790 339 q 2803 364 2800 356 m 3426 103 q 3387 58 3411 74 q 3328 46 3363 43 q 3272 66 3293 49 q 3239 114 3251 83 q 3223 181 3226 146 q 3222 251 3219 215 q 3237 396 3229 325 q 3254 539 3244 467 q 3258 563 3256 551 q 3264 586 3261 575 q 3324 638 3279 629 q 3369 632 3349 640 q 3401 603 3390 624 q 3418 568 3411 588 q 3428 529 3425 549 q 3443 432 3435 481 q 3456 335 3451 383 q 3459 238 3461 286 q 3444 144 3457 190 q 3437 124 3440 135 q 3426 103 3433 113 m 3244 754 q 3269 819 3242 792 q 3338 846 3296 846 q 3401 821 3375 846 q 3426 764 3426 796 q 3399 700 3426 726 q 3331 674 3371 674 q 3269 696 3293 674 q 3244 754 3246 718 m 3799 397 q 3807 304 3806 350 q 3810 210 3808 258 q 3807 158 3810 183 q 3796 106 3804 132 q 3751 39 3781 64 q 3672 14 3721 14 q 3597 36 3632 11 q 3546 104 3561 61 q 3531 214 3529 160 q 3544 424 3536 318 q 3560 636 3551 529 q 3567 679 3563 657 q 3574 724 3571 701 q 3609 784 3585 763 q 3667 807 3633 806 q 3728 788 3703 808 q 3765 729 3754 767 q 3771 711 3767 724 q 3784 718 3778 714 q 3797 725 3790 722 q 3851 756 3825 740 q 3906 783 3878 772 q 4017 788 3968 807 q 4099 713 4067 769 q 4144 578 4133 649 q 4147 435 4156 508 q 4144 410 4144 424 q 4142 386 4143 397 q 4076 319 4129 331 q 4024 323 4049 313 q 3986 358 4000 333 q 3974 388 3979 372 q 3967 421 3968 404 q 3967 478 3965 449 q 3969 535 3968 507 q 3961 615 3975 597 q 3924 621 3947 632 q 3874 579 3901 610 q 3826 514 3847 549 q 3803 459 3811 488 q 3799 397 3794 431 m 4625 449 q 4622 490 4625 469 q 4614 531 4618 510 q 4607 572 4610 551 q 4606 613 4604 592 q 4625 672 4610 644 q 4660 699 4639 692 q 4708 703 4682 706 q 4782 650 4763 697 q 4818 441 4821 542 q 4779 251 4815 340 q 4702 132 4749 181 q 4601 59 4656 83 q 4489 36 4546 35 q 4381 65 4432 38 q 4290 148 4331 93 q 4228 288 4249 203 q 4213 451 4207 371 q 4247 611 4219 532 q 4261 640 4253 626 q 4278 668 4269 654 q 4328 706 4297 696 q 4393 706 4358 717 q 4440 674 4421 696 q 4458 621 4458 653 q 4460 566 4461 593 q 4461 514 4458 539 q 4462 353 4453 418 q 4489 253 4471 289 q 4531 213 4507 218 q 4575 231 4554 207 q 4610 310 4596 256 q 4625 449 4625 364 m 4893 153 q 4876 215 4874 185 q 4903 268 4879 246 q 4960 293 4926 292 q 5025 272 4993 294 q 5040 260 5032 267 q 5058 251 5049 254 q 5106 256 5085 246 q 5144 282 5128 265 q 5158 315 5160 296 q 5140 350 5156 335 q 5116 367 5128 360 q 5090 385 5104 375 q 5038 415 5064 400 q 4986 449 5011 429 q 4916 516 4942 478 q 4885 597 4890 554 q 4894 684 4879 640 q 4947 765 4910 728 q 5034 828 4988 807 q 5128 853 5081 850 q 5225 842 5176 857 q 5318 794 5274 828 q 5351 763 5338 779 q 5371 726 5364 747 q 5377 688 5381 706 q 5360 658 5374 669 q 5288 651 5326 633 q 5273 661 5279 654 q 5258 672 5267 668 q 5222 688 5240 679 q 5185 701 5204 696 q 5159 701 5172 704 q 5133 692 5146 699 q 5109 677 5119 686 q 5093 658 5099 668 q 5086 628 5083 639 q 5108 606 5089 617 q 5163 583 5136 594 q 5215 560 5189 572 q 5263 533 5239 547 q 5308 503 5288 519 q 5419 200 5457 382 q 5351 79 5404 122 q 5226 19 5299 36 q 5185 15 5206 17 q 5146 14 5165 14 q 4893 153 4981 17 m 5650 344 q 5756 292 5706 322 q 5856 224 5807 261 q 5872 206 5864 217 q 5888 186 5881 196 q 5903 142 5901 164 q 5894 103 5904 121 q 5866 74 5885 85 q 5821 61 5847 63 q 5778 69 5797 60 q 5742 92 5760 78 q 5638 165 5689 129 q 5526 229 5586 201 q 5485 276 5492 244 q 5500 333 5478 308 q 5570 361 5531 365 q 5650 344 5610 357 m 5910 828 q 5908 763 5921 793 q 5858 711 5894 732 q 5830 699 5843 704 q 5800 688 5817 694 q 5711 647 5756 667 q 5621 604 5667 626 q 5565 597 5593 592 q 5517 621 5538 601 q 5510 715 5476 661 q 5528 738 5518 726 q 5549 758 5538 750 q 5630 819 5589 790 q 5713 874 5671 847 q 5768 898 5738 892 q 5826 899 5799 904 q 5877 875 5854 893 q 5910 828 5900 857 m 5958 501 q 5967 457 5971 478 q 5949 421 5963 436 q 5913 399 5935 406 q 5868 394 5892 392 q 5855 396 5861 394 q 5843 399 5849 397 q 5735 420 5790 413 q 5619 439 5679 428 q 5587 453 5599 440 q 5571 485 5575 467 q 5580 517 5569 503 q 5611 536 5590 531 q 5627 539 5619 539 q 5643 539 5635 539 q 5701 538 5671 539 q 5763 538 5732 538 q 5816 540 5790 538 q 5869 542 5842 542 q 5923 533 5903 544 q 5958 501 5943 522 z "}}}
